<?xml version="1.0" standalone="no"?>
<!DOCTYPE svg PUBLIC "-//W3C//DTD SVG 1.1//EN" "http://www.w3.org/Graphics/SVG/1.1/DTD/svg11.dtd" >
<!--
2013-9-30: Created.
-->
<svg>
<metadata>
Created by iconfont
</metadata>
<defs>

<font id="el" horiz-adv-x="1024" >
  <font-face
    font-family="el"
    font-weight="500"
    font-stretch="normal"
    units-per-em="1024"
    ascent="896"
    descent="-128"
  />
    <missing-glyph />
    
    <glyph glyph-name="x" unicode="x" horiz-adv-x="1001"
d="M281 543q-27 -1 -53 -1h-83q-18 0 -36.5 -6t-32.5 -18.5t-23 -32t-9 -45.5v-76h912v41q0 16 -0.5 30t-0.5 18q0 13 -5 29t-17 29.5t-31.5 22.5t-49.5 9h-133v-97h-438v97zM955 310v-52q0 -23 0.5 -52t0.5 -58t-10.5 -47.5t-26 -30t-33 -16t-31.5 -4.5q-14 -1 -29.5 -0.5
t-29.5 0.5h-32l-45 128h-439l-44 -128h-29h-34q-20 0 -45 1q-25 0 -41 9.5t-25.5 23t-13.5 29.5t-4 30v167h911zM163 247q-12 0 -21 -8.5t-9 -21.5t9 -21.5t21 -8.5q13 0 22 8.5t9 21.5t-9 21.5t-22 8.5zM316 123q-8 -26 -14 -48q-5 -19 -10.5 -37t-7.5 -25t-3 -15t1 -14.5
t9.5 -10.5t21.5 -4h37h67h81h80h64h36q23 0 34 12t2 38q-5 13 -9.5 30.5t-9.5 34.5q-5 19 -11 39h-368zM336 498v228q0 11 2.5 23t10 21.5t20.5 15.5t34 6h188q31 0 51.5 -14.5t20.5 -52.5v-227h-327z" />
    

    
    <glyph glyph-name="jia01" unicode="&#58901;" d="M-4.0e-06 812l0-1024 1024 0L1023.999996 812-4.0e-06 812zM983.067748-171.067752 40.932244-171.067752 40.932244 771.067752l942.135504 0L983.067748-171.067752zM287.83147 279.533876l203.702402 0 0-203.702402c0-11.30344 9.162684-20.466124 20.466124-20.466124s20.466124 9.162684 20.466124 20.466124L532.46612 279.533876l203.702402 0c11.30344 0 20.466124 9.162684 20.466124 20.466124s-9.162684 20.466124-20.466124 20.466124L532.46612 320.466124 532.46612 524.168526c0 11.30344-9.162684 20.466124-20.466124 20.466124s-20.466124-9.162684-20.466124-20.466124l0-203.702402L287.83147 320.466124c-11.30344 0-20.466124-9.162684-20.466124-20.466124S276.52803 279.533876 287.83147 279.533876z"  horiz-adv-x="1024" />

    
    <glyph glyph-name="lvxing1" unicode="&#58994;" d="M716.944 475.858h-5.839v81.528h-53.226v-81.528h-292.76v81.528h-53.207v-81.528h-5.879c-67.182 0-121.837-54.635-121.837-121.837v-348.783c0-67.199 54.656-121.857 121.837-121.857h19.171v-7.598c0-19.606 15.9-35.484 35.484-35.484 19.585 0 35.485 15.879 35.485 35.484v7.598h230.672v-7.598c0-19.606 15.88-35.484 35.485-35.484 19.584 0 35.483 15.879 35.483 35.484v7.598h19.131c67.201 0 121.856 54.658 121.856 121.857l0 348.784c0 67.202-54.656 121.836-121.856 121.836zM783.048 5.239c0-36.435-29.647-66.082-66.104-66.082h-410.912c-36.438 0-66.085 29.647-66.085 66.082v348.783c0 36.437 29.647 66.084 66.085 66.084h410.912c36.456 0 66.104-29.647 66.104-66.084l0-348.783zM369.487 339.861c-14.7 0-26.604-11.925-26.604-26.624v-267.213c0-14.699 11.904-26.624 26.604-26.624 14.72 0 26.624 11.925 26.624 26.624v267.213c0 14.699-11.904 26.624-26.624 26.624zM653.51 339.861c-14.7 0-26.603-11.925-26.603-26.624v-267.213c0-14.699 11.903-26.624 26.603-26.624 14.698 0 26.623 11.925 26.623 26.624l0 267.213c0 14.699-11.926 26.624-26.623 26.624zM365.119 620.986c0 34.242 27.866 62.088 62.109 62.088h168.564c34.241 0 62.088-27.845 62.088-62.088v-28.115h53.226v28.115c0 63.579-51.737 115.314-115.314 115.314l-168.564-0c-63.6 0-115.315-51.736-115.315-115.314v-28.115h53.207l-0 28.115z"  horiz-adv-x="1024" />

    
    <glyph glyph-name="gengduo" unicode="&#58902;" d="M409.112702 800.147932 109.463064 800.147932c-24.820292 0-44.946678-20.136619-44.946678-44.955888l0-299.620985c0-24.819269 20.126386-44.955888 44.946678-44.955888l299.649638 0c24.789593 0 44.945655 20.136619 44.945655 44.955888L454.058356 755.192044C454.058356 780.011312 433.902294 800.147932 409.112702 800.147932zM869.771383 339.477994 570.111512 339.477994c-24.820292 0-44.936445-20.116153-44.936445-44.935422l0-299.640428c0-24.820292 20.116153-44.936445 44.936445-44.936445l299.659871 0c24.799826 0 44.936445 20.116153 44.936445 44.936445L914.707828 294.542572C914.707828 319.361841 894.571209 339.477994 869.771383 339.477994zM937.535743 685.435307 695.371354 813.277974c-20.035312 10.588149-44.87607 2.902096-55.483662-17.113773L512.024559 553.950693c-10.567683-20.076244-2.891863-44.877093 17.174148-55.505152l242.174622-127.822201c20.055778-10.588149 44.935422-2.902096 55.523571 17.134239l127.823224 242.173598C965.318506 650.007423 957.641663 674.847158 937.535743 685.435307zM409.112702 339.477994 109.463064 339.477994c-24.820292 0-44.946678-20.116153-44.946678-44.935422l0-299.640428c0-24.820292 20.126386-44.936445 44.946678-44.936445l299.649638 0c24.789593 0 44.945655 20.116153 44.945655 44.936445L454.058356 294.542572C454.058356 319.361841 433.902294 339.477994 409.112702 339.477994z"  horiz-adv-x="1024" />

    
    <glyph glyph-name="tishi" unicode="&#59449;" d="M512.779759-60.954001 512.779759-60.954001 512.779759-60.954001c246.346641 0 446.047916 199.703321 446.047916 446.039729 0 246.346641-199.701275 446.048939-446.047916 446.048939-246.337431 0-446.039729-199.703321-446.039729-446.048939C66.74003 138.74932 266.442328-60.954001 512.779759-60.954001L512.779759-60.954001zM478.812133 168.339242 478.812133 168.339242 478.812133 168.339242 478.812133 476.104721c0 19.936051 15.905248 36.094056 35.530215 36.094056 19.614733 0 35.198663-9.927093 35.198663-37.349653 0-27.428699 0.321318-306.510906 0.321318-306.510906 0-19.912515-15.905248-36.08894-35.519981-36.08894C494.717382 132.250302 478.812133 148.426727 478.812133 168.339242L478.812133 168.339242zM514.258437 660.155551 514.258437 660.155551c23.373337 0 42.320874-19.254529 42.320874-42.99728 0-23.74889-18.947538-43.002396-42.320874-43.002396-23.373337 0-42.325991 19.254529-42.325991 43.002396C471.932446 640.901021 490.8851 660.155551 514.258437 660.155551L514.258437 660.155551zM514.258437 660.155551"  horiz-adv-x="1024" />

    
    <glyph glyph-name="jinakangbaoicons18" unicode="&#58991;" d="M512.183-116.324c-272.613 0-494.382 221.828-494.382 494.445s221.766 494.382 494.382 494.382 494.382-221.766 494.382-494.382-221.766-494.445-494.382-494.445zM512.183 810.116c-238.21 0-432.059-193.785-432.059-432.059s193.851-432.127 432.059-432.127 432.059 193.851 432.059 432.127-193.785 432.059-432.059 432.059zM737.623 190.112l-187.989 187.932 187.989 187.932-37.442 37.442-187.932-187.932-187.932 187.932-37.442-37.442 187.932-187.932-187.989-187.989 37.442-37.442 187.989 187.989 187.932-187.932z"  horiz-adv-x="1024" />

    
    <glyph glyph-name="naozhong1-copy" unicode="&#58880;" d="M820.553 20.992c11.311-11.283 22.273-22.213 33.215-33.155 18.605-18.598 37.391-37.021 55.753-55.86 18.845-19.329 10.472-50.483-15.264-57.023-13.133-3.333-24.439 0.613-34.010 10.223-29.836 29.962-59.791 59.791-89.62 89.761-1.788 1.795-2.849 4.315-3.508 5.329-170.932-96.959-339.505-96.945-509.006-0.765-1.19-1.135-3.078-2.849-4.887-4.658-30.239-30.211-60.323-60.591-90.748-90.615-18.806-18.55-49.334-11.171-56.741 13.542-4.079 13.603-0.349 25.4 9.658 35.388 27.437 27.375 54.798 54.817 82.26 82.164 1.815 1.809 4.18 3.059 6.385 4.645-113.82 102.397-172.052 228.132-167.26 380.022 4.207 133.167 57.393 245.437 155.346 335.7 188.986 174.153 485.967 163.109 664.488-24.033 185.322-194.275 174.95-509.975-36.059-690.666v0zM104.023 383.666c0.027-224.589 182.5-407.807 406.259-407.933 226.779-0.122 409.091 181.268 409.453 407.396 0.364 225.361-182.682 408.66-407.853 408.411-225.286-0.248-407.885-182.856-407.859-407.873v0zM201.064 894.211c5.921-1.129 12.145-1.464 17.71-3.548 14.619-5.464 23.429-21.219 20.955-36.045-2.789-16.655-15.734-28.7-32.255-28.996-30.474-0.55-58.386-8.826-82.678-27.402-35.855-27.428-53.668-64.179-54.831-109.171-0.356-13.994-6.949-24.202-19.43-30.217-12.023-5.795-23.826-4.403-34.554 3.393-9.591 6.963-14.154 16.81-13.805 28.598 2.112 71.89 32.62 128.516 92.115 168.989 32.019 21.783 67.944 32.209 106.772 34.399v0zM1021.742 692.919c0.411-5.377-0.269-14.584-6.048-22.778-8.571-12.146-23.781-17.516-37.908-13.221-14.14 4.302-23.812 16.965-24.027 32.906-0.337 25.494-6.568 49.32-20.279 70.739-26.776 41.853-65.43 63.24-115.011 64.893-24.526 0.814-40.495 22.819-32.673 45.194 4.86 13.9 17.624 23.013 33.103 22.589 76.022-2.077 134.282-35.583 174.333-100.099 18.172-29.27 26.958-61.659 28.509-100.225v0zM478.083 485.834c0.005 33.82-0.109 67.648 0.060 101.468 0.081 15.299 9.033 27.631 22.732 32.321 13.49 4.625 28.476 0.324 37.484-10.821 5.733-7.077 7.716-15.304 7.702-24.297-0.067-59.891 0.027-119.784-0.141-179.677-0.012-5.082 1.358-8.663 5.009-12.292 39.997-39.729 79.86-79.585 119.643-119.523 15.229-15.299 14.866-37.967-0.485-51.108-13.307-11.392-32.489-11.077-45.535 1.196-9.403 8.846-18.35 18.181-27.483 27.315-35.050 35.044-69.934 70.244-105.24 105.018-9.72 9.572-14.121 20.224-13.906 33.861 0.498 32.177 0.161 64.357 0.161 96.539v0zM478.083 485.834z"  horiz-adv-x="1024" />

    
    <glyph glyph-name="icon-life-people" unicode="&#59029;" d="M502.496 831.456c125.856 0 227.904-100.352 227.904-224.16 0-123.744-102.048-224.192-227.904-224.192S274.592 483.552 274.592 607.296c-0.032 123.84 102.08 224.16 227.904 224.16z m0 0c125.856 0 227.904-100.352 227.904-224.16 0-123.744-102.048-224.192-227.904-224.192S274.592 483.552 274.592 607.296c-0.032 123.84 102.08 224.16 227.904 224.16z m-85.504-523.04h189.984c162.592 0 294.368-129.632 294.368-289.536v-18.656c0-63.04-131.84-65.44-294.368-65.44H416.992c-162.528 0-294.336 0.032-294.336 65.44V18.879999999999995c0 159.904 131.808 289.536 294.336 289.536z"  horiz-adv-x="1024" />

    
    <glyph glyph-name="yapen" unicode="&#58974;" d="M867.768 572.576H542.664v39.92c1.68-0.056 3.36-0.416 5.032-0.416 58.84 0 114.104 22.848 155.544 64.328 49.92 49.896 72.92 121.44 61.504 191.392A30.68 30.68 0 0 1 739.408 893.136C669.464 904.504 597.888 881.6 548.024 831.68c-14.4-14.408-26.288-30.76-36.024-48.216-9.736 17.456-21.624 33.808-36.024 48.184C426.056 881.6 354.456 904.416 284.584 893.128a30.672 30.672 0 0 1-25.32-25.36c-11.376-69.992 11.608-141.528 61.472-191.392 41.48-41.48 96.696-64.328 155.544-64.328 1.704 0 3.352 0.36 5.064 0.416v-39.888H156.232c-45.192 0-81.968-36.744-81.968-81.936v-30.096c0-45.192 36.776-81.936 81.968-81.936h6.92l68.624-480.288a30.656 30.656 0 0 1 30.344-26.32h499.816a30.672 30.672 0 0 1 30.368 26.32l68.576 480.288h6.88c45.192 0 81.968 36.744 81.968 81.936V490.64c0.008 45.192-36.768 81.936-81.96 81.936zM591.424 788.288c30.488 30.608 71.128 48.096 114.84 46.384 0.656-42.736-15.896-84.448-46.392-114.904-30.512-30.512-71.36-47.856-114.84-46.328-0.656 42.728 15.872 84.392 46.392 114.848zM476.272 673.376c-42.464 0-82.296 16.472-112.176 46.36-30.456 30.456-46.992 72.168-46.36 114.936 0.896 0 1.8 0.032 2.664 0.032 42.44 0 82.296-16.504 112.208-46.448 30.456-30.392 46.992-72.08 46.328-114.84-0.864-0.008-1.768-0.04-2.664-0.04z m259.072-740.048H288.712l-63.624 445.28h573.8l-63.544-445.28z m153.064 527.216a20.656 20.656 0 0 0-20.64-20.608H156.232a20.648 20.648 0 0 0-20.632 20.608V490.64a20.648 20.648 0 0 0 20.632 20.6h711.536a20.648 20.648 0 0 0 20.64-20.6v-30.096z"  horiz-adv-x="1024" />

    
    <glyph glyph-name="shouye" unicode="&#59003;" d="M947.2 415.3344c-0.4096 15.1552-3.4816 26.2144-14.336 41.5744-2.048 3.072-335.0528 351.8464-335.0528 351.8464-23.1424 24.1664-53.6576 35.6352-84.1728 35.84V844.8c-0.4096 0-1.024-0.2048-1.4336-0.2048-0.6144 0-1.024 0.2048-1.6384 0.2048v-0.2048c-30.5152 0-61.0304-11.6736-84.3776-35.84 0 0-332.8-348.7744-334.848-351.8464-10.8544-15.36-13.9264-26.4192-14.336-41.5744v-5.7344c0-47.5136 39.3216-86.2208 87.8592-86.2208h21.0944v-309.248c0-50.3808 46.08-91.136 103.0144-91.136 56.7296 0 102.8096 40.7552 102.8096 91.136v309.248h240.8448v-309.248c0-50.3808 46.08-91.136 103.0144-91.136 56.7296 0 102.8096 40.7552 102.8096 91.136v309.248h21.0944c48.7424 0 88.064 38.7072 88.064 86.2208 0 0.4096-0.2048 0.8192-0.2048 1.2288l-0.2048 4.5056z m-131.072 311.7056l0.6144-0.6144 66.1504-68.608c9.4208-9.6256 24.7808-10.0352 34.6112-1.024 0.2048 0 0.2048 0.2048 0.4096 0.2048l0.8192 0.8192c2.8672 3.072 4.7104 5.7344 5.7344 10.8544 0.2048 1.024 0.4096 2.048 0.4096 3.072 0.2048 1.024 0.4096 2.2528 0.6144 3.4816l7.5776 127.1808c0.6144 9.216-2.8672 17.6128-8.8064 23.552-0.2048 0-0.2048 0.2048-0.4096 0.2048l-0.4096 0.4096c-5.9392 6.144-14.1312 9.8304-23.552 9.8304H770.048c-1.2288 0-2.4576-0.2048-3.6864-0.2048-1.024 0-2.048-0.2048-3.072-0.2048-5.3248-0.8192-8.192-2.2528-11.4688-5.12l-0.8192-0.8192-0.2048-0.2048c-9.8304-9.216-10.24-24.3712-1.024-33.9968l66.3552-68.8128z"  horiz-adv-x="1024" />

    
    <glyph glyph-name="tick2" unicode="&#58888;" d="M968.5 742.5l-605.8-605.8-307.2 307.2-55.5-55.4 307.3-307.3-0.2-0.2 55.4-55.5 661.5 661.5-55.5 55.5z"  horiz-adv-x="1024" />

    
    <glyph glyph-name="location" unicode="&#58891;" d="M511.9 80h-0.1c-10.5 0-20.6 4.6-27.4 12.6-10.5 12.2-21.9 25.2-34 39-107.6 122.7-252.9 282.6-252.9 433 0 174.6 142 316.6 316.6 316.6s316.6-142 316.6-316.6c0-153.5-152.9-315.7-262.9-440-10-11.3-19.5-22.1-28.4-32.2-7.1-7.9-17.1-12.4-27.5-12.4zM514 808.5c-134.5 0-243.9-109.4-243.9-243.9 0-166.2 172.7-308.6 244.1-396.9 70.8 92.3 243.6 229.9 243.6 396.9 0.1 134.5-109.3 243.9-243.8 243.9zM514 444.5c-76.2 0-138.2 62-138.2 138.2 0 76.2 62 138.2 138.2 138.2 76.2 0 138.2-62 138.2-138.2 0-76.2-61.9-138.2-138.2-138.2zM514 648.2c-36.1 0-65.4-29.4-65.4-65.5s29.4-65.4 65.4-65.4c36.1 0 65.5 29.3 65.5 65.4s-29.4 65.5-65.5 65.5zM987.6-113.3h-951.2c-12.5 0-24.2 6.5-30.8 17.1-6.6 10.6-7.4 23.9-1.9 35.2l140.3 290.5c6.1 12.5 18.8 20.5 32.7 20.5h81.6c20.1 0 36.4-16.3 36.4-36.4s-16.3-36.4-36.4-36.4h-58.8l-105-217.8h837.5l-95 217.8h-70.7c-20.1 0-36.4 16.3-36.4 36.4s16.3 36.4 36.4 36.4h94.5c14.4 0 27.5-8.6 33.3-21.7l127-290.5c4.9-11.2 3.9-24.2-2.8-34.5-6.9-10.3-18.4-16.6-30.7-16.6z"  horiz-adv-x="1024" />

    
    <glyph glyph-name="security" unicode="&#58892;" d="M512-128s-435.2 151.7-435.2 418.9v449.9l435.2 155.2 435.2-155.2v-449.9c0-267.2-435.2-418.9-435.2-418.9zM693 543.8l-217.2-217.2-119.2 119.2-72.4-72.4 191.6-191.6 289.6 289.6-72.4 72.4z"  horiz-adv-x="1024" />

    
    <glyph glyph-name="gps" unicode="&#58893;" d="M1023 896l-1022-424.8 422.8-176.5 168.2-422.7 431 1024z"  horiz-adv-x="1024" />

    
    <glyph glyph-name="qrcode" unicode="&#58894;" d="M0 892.5h170.7v-357.6h-170.7v357.6zM19.1 427.2h985.8c10.5 0 19.1-8.5 19.1-19v-38c0-10.5-8.6-19-19.1-19h-985.8c-10.5 0-19.1 8.5-19.1 19v38c0 10.5 8.6 19 19.1 19zM1024 233.4h-74.8v-357.9h74.8v357.9zM1024 892.5h-74.8v-357.9h74.8v357.9zM645.4 233.4h189.4v-357.9h-189.4v357.9zM645.4 892.5h189.4v-357.9h-189.4v357.9zM512.8 232.8h76.8v-357.3h-76.8v357.3zM512.8 892.5h76.8v-357.3h-76.8v357.3zM248.9 232.8h131.4v-357.3h-131.4v357.3zM248.9 892.5h131.4v-357.3h-131.4v357.3zM0 233.1h170.7v-357.6h-170.7v357.6z"  horiz-adv-x="1024" />

    
    <glyph glyph-name="close" unicode="&#58895;" d="M0 381c0-170.7 138.4-309 309-309h406c170.7 0 309 138.3 309 309s-138.4 309-309 309h-406c-170.6 0-309-138.3-309-309zM28.2 380.4c0 154.9 125.6 280.4 280.5 280.5 154.9 0 280.4-125.6 280.4-280.5s-125.6-280.5-280.5-280.5c-154.8 0-280.4 125.6-280.4 280.5z"  horiz-adv-x="1025" />

    
    <glyph glyph-name="add" unicode="&#58896;" d="M0 411.1h1024v-54.2h-1024v54.2zM484.9 896h54.2v-1024h-54.2v1024z"  horiz-adv-x="1024" />

    
    <glyph glyph-name="open" unicode="&#58898;" d="M1024 384c0 170.7-138.4 309-309 309h-406c-170.6 0-309-138.3-309-309s138.4-309 309-309h406c170.6 0 309 138.3 309 309zM995.8 384.6c0-154.9-125.6-280.4-280.5-280.5-154.9 0-280.4 125.6-280.4 280.5s125.6 280.5 280.5 280.5c154.8 0 280.4-125.6 280.4-280.5z"  horiz-adv-x="1024" />

    
    <glyph glyph-name="tick" unicode="&#58899;" d="M1004 876v-984h-984v984h984M1024 896h-1024v-1024h1024v1024zM911.9 653l-506.1-562.8-23.9 23.8-269.8 263.1 25.3 24.8 268.1-261.5 481.1 537.4 25.3-24.8z"  horiz-adv-x="1024" />

    
    <glyph glyph-name="money" unicode="&#58900;" d="M0 700v-131l36.6-2.7c0 2.1 0.1 132.3 0.3 134.4 4.1 52 57.8 103.3 109.4 103.3h128v36.6l-131 0.9c-79.1 0-141.7-62.2-143.3-141.5zM987.2 700.1c0.2-2.1 0.3-131.7 0.3-133.8l36.6 2.7v130.5c-1.6 79-64.2 140.9-143.2 140.9l-131-0.9v-36.5h128c51.4 0 105.1-51.1 109.3-102.9zM36.8 66.9c-0.2 2.1-0.3 131.9-0.3 134.1l-36.5-2.7v-130.7c1.6-79.1 64.2-141.1 143.2-141.1l131 0.9v36.5h-128c-51.5 0-105.2 51.2-109.4 103zM987.2 67.5c-4.2-51.7-57.9-102.6-109.5-102.6h-128v-36.3l131-0.9c79 0 141.6 61.7 143.2 140.5v130.2l-36.6 2.7c0.1-2.2 0-131.5-0.1-133.6zM713.1 401.7c13.3 0 22.9 5.4 22.9 18.7s-9.7 17.9-22.9 17.9h-146.2l146.3 146.3c9.4 9.4 23.6 21.9 14.2 31.5-9.4 9.4-24.7 9.4-34.2 0l-162.6-163.4-162.8 163.3c-9.4 9.4-24.6 9.4-34.2 0-9.5-9.4 4.4-21.9 13.8-31.5l146.3-146.3h-146.3c-13.3 0-22.9-4.6-22.9-17.9 0-13.3 9.6-18.7 22.9-18.7h164.6v-109.6h-164.6c-13.3 0-22.9-0.7-22.9-14s9.6-22.6 22.9-22.6h164.6v-146.3c0-13.3 3.3-10.9 16.5-10.9 13.3 0 20-2.4 20 10.9v146.3h164.6c13.3 0 22.9 9.3 22.9 22.6s-9.7 14-22.9 14h-164.5v109.7h164.5z"  horiz-adv-x="1024" />

    
    <glyph glyph-name="merchant2" unicode="&#58903;" d="M827.1 432.1c19.5-17 43.8-28.7 70.2-33.2v-431c0-19.5-15.7-35.2-35.1-35.2h-702.2c-19.4 0-35.2 15.7-35.2 35.2v430.8c26.6 4.1 50.7 15.3 70.4 31.8v-229.4h631.9v231zM883 763.4c5 0 9.8-1.1 14.4-2.7v39.5c0 19.4-15.7 35.1-35.1 35.1h-702.3c-19.4 0-35.2-15.7-35.2-35.1v-40c5 1.9 10.5 3.2 16.1 3.2h742.1zM883 721.2h-742l-141-151.4c0-56.5 45.9-102.4 102.3-102.4 11.8 0 23 2 33.5 5.7 0.3 0.2 0.8 0.4 1.1 0.5 3.3 1.1 6.5 2.4 9.5 3.9 0.4 0.2 0.9 0.4 1.3 0.7 3.2 1.6 6.4 3.3 9.3 5.2 0.1 0.1 0.3 0.2 0.4 0.3 13 8.4 24 19.6 32.2 32.7 0 0.1 0.1 0.2 0.1 0.3 2 3.2 3.8 6.6 5.4 10.1 6.1 13 9.6 27.6 9.6 43 0-56.5 45.9-102.4 102.4-102.4 56.5 0 102.4 45.9 102.4 102.4 0-56.5 45.9-102.4 102.5-102.4 56.5 0 102.4 45.9 102.4 102.4 0-56.5 45.8-102.4 102.5-102.4 56.4 0 102.3 45.9 102.3 102.4 0-18.1 4.8-35 12.9-49.8 0.5-0.7 0.8-1.3 1.3-2 1.6-2.5 3.1-5.1 4.9-7.5 0.5-0.7 1.1-1.5 1.8-2.4 1.7-2.2 3.5-4.5 5.5-6.6 0.6-0.7 1.1-1.3 1.6-1.9 2.4-2.6 5-4.9 7.6-7.2 0.1-0.1 0.2-0.3 0.3-0.3 9-7.7 19.3-13.8 30.6-18 0 0 0.3 0 0.4-0.2 3.8-1.4 7.4-2.5 11.4-3.4 7.8-1.9 15.9-3 24.1-3 56.6 0 102.5 45.9 102.5 102.4l-141.1 151.3z"  horiz-adv-x="1024" />

    
    <glyph glyph-name="scan" unicode="&#58904;" d="M987.4 347.6h-950.8c-20.2 0-36.6 16.3-36.6 36.4s16.4 36.4 36.6 36.4h950.9c20.2 0 36.6-16.3 36.6-36.4-0.1-20.1-16.5-36.4-36.7-36.4M877.7-88.8h-219.4c-20.2 0-36.6 16.3-36.6 36.4s16.4 36.4 36.6 36.4h219.4c20.2 0 36.6 16.3 36.6 36.4v181.8c0 20.1 16.3 36.4 36.6 36.4 20.2 0 36.6-16.3 36.6-36.4v-181.8c-0.1-60.2-49.3-109.2-109.8-109.2M329.1-88.8h-182.8c-60.5 0-109.7 49-109.7 109.1v181.9c0 20.1 16.4 36.4 36.6 36.4 20.2 0 36.6-16.3 36.6-36.4v-181.8c0-20.1 16.4-36.4 36.6-36.4h182.9c20.2 0 36.6-16.3 36.6-36.4-0.2-20.1-16.6-36.4-36.8-36.4M73.1 529.5c-20.2 0-36.6 16.3-36.6 36.4v181.8c0 60.2 49.2 109.1 109.7 109.1h182.9c20.2 0 36.6-16.3 36.6-36.4s-16.4-36.4-36.6-36.4h-182.8c-20.1 0-36.6-16.3-36.6-36.4v-181.8c0-20-16.4-36.3-36.6-36.3M950.9 529.5c-20.2 0-36.6 16.3-36.6 36.4v181.8c0 20-16.4 36.4-36.6 36.4h-219.4c-20.2 0-36.6 16.3-36.6 36.4s16.4 36.4 36.6 36.4h219.4c60.5 0 109.7-49 109.7-109.1v-181.8c0-20.2-16.3-36.5-36.5-36.5M950.9 529.5z"  horiz-adv-x="1024" />

    
    <glyph glyph-name="success1" unicode="&#58905;" d="M461 110.5c-12.3 0-24.6 4.7-34 14.1l-197.6 197.5c-18.7 18.8-18.7 49.2 0 67.9 18.7 18.8 49.2 18.8 67.9 0l163.7-163.6 418.1 418.1c18.8 18.8 49.2 18.8 67.9 0 18.7-18.7 18.7-49.2 0-67.9l-452-452.1c-9.4-9.3-21.7-14-34-14M512-128c-282.3 0-512 229.7-512 512s229.7 512 512 512c100.7 0 198.2-29.2 281.9-84.5 16.9-11.1 21.5-33.8 10.4-50.7-11.1-16.8-33.8-21.5-50.7-10.4-71.7 47.4-155.3 72.5-241.6 72.5-242 0-438.9-196.9-438.9-438.9 0-242 196.9-438.9 438.9-438.9 242 0 438.9 196.9 438.9 438.9 0 15.3-0.8 30.7-2.3 45.7-2.1 20.1 12.5 38.1 32.6 40.1 20.1 2.1 38.1-12.5 40.1-32.6 1.8-17.5 2.7-35.4 2.7-53.2 0-282.3-229.7-512-512-512M512-128z"  horiz-adv-x="1024" />

    
    <glyph glyph-name="refresh" unicode="&#58906;" d="M964.5 339.4c-10.3 5.3-23 1.3-28.4-9-1.9-3.7-2.3-11.4-2.3-11.4v-0.1c-2.4-59.8-17.6-120-46.9-176.6-107-206.9-361.5-287.9-568.5-180.9-206.9 107.1-287.8 361.6-180.8 568.5 73 141.2 214.7 223.8 363.1 228v42.3c-163.7-4.2-320.1-95.1-400.6-250.9-117.8-227.6-28.7-507.6 199-625.3 227.6-117.7 507.6-28.7 625.4 199 32 61.9 48.5 127.7 51.3 193.1 0.1 1.7 0.1 3.4 0.1 3.9 0.3 7.8-3.9 15.6-11.4 19.4zM500.7 661.6l141.7 116.9-141.7 117.5v-234.4z"  horiz-adv-x="1024" />

    
    <glyph glyph-name="camera" unicode="&#58907;" d="M511.9 522.2c-90.3 0-163.5-73.3-163.5-163.8 0-90.6 73.2-163.9 163.5-163.9s163.5 73.3 163.5 163.9c0.1 90.5-73.2 163.8-163.5 163.8zM921.6 716.8h-153.6l-102.7 102.4h-306.7l-102.6-102.4h-153.6c-56.3 0-102.4-42.5-102.4-102.4v-556.9c0-59.8 46.1-108.7 102.4-108.7h819.2c56.2 0 102.4 42.6 102.4 102.4v563.2c0 59.9-46.2 102.4-102.4 102.4zM511.9 102.4c-143.2 0-255.5 112.7-255.5 255.9 0 143.4 112.3 256 255.5 256s255.7-112.6 255.7-256c0-143.2-112.5-255.9-255.7-255.9z"  horiz-adv-x="1024" />

    
    <glyph glyph-name="eye" unicode="&#58908;" d="M512 683.7c-334.6 0-512-317.3-512-317.3s191.5-282 512-282 512 282 512 282-157.4 317.3-512 317.3zM512.3 203.5c-102 0-184.7 80.7-184.7 180.2s82.7 180.3 184.7 180.3 184.7-80.7 184.7-180.3-82.7-180.2-184.7-180.2zM512 457.2c-44.7 0-80.9-35.9-80.9-80.2s36.2-80.2 80.9-80.2 80.9 35.9 80.9 80.2-36.2 80.2-80.9 80.2z"  horiz-adv-x="1024" />

    
    <glyph glyph-name="selection-card3" unicode="&#58910;" d="M917.3 555h-810.6c-11.8 0-21.3-9.6-21.3-21.4 0-11.8 9.5-21.4 21.3-21.4h810.6c11.8 0 21.3 9.6 21.3 21.4 0.1 11.9-9.5 21.4-21.3 21.4zM938.7 768.8h-853.4c-47.1 0-85.3-38.3-85.3-85.5v-598.6c0-47.2 38.2-85.5 85.3-85.5h853.3c47.1 0 85.3 38.3 85.3 85.5v598.6c0.1 47.2-38.1 85.5-85.2 85.5zM981.3 84.7c0-23.6-19.1-42.8-42.6-42.8h-853.4c-23.6 0-42.7 19.2-42.7 42.8v598.6c0 23.6 19.1 42.8 42.7 42.8h853.3c23.6 0 42.6-19.1 42.6-42.8v-598.6h0.1zM490.7 170.2h-298.7c-11.8 0-21.3-9.5-21.3-21.4 0-11.8 9.5-21.3 21.3-21.3h298.7c11.8 0 21.3 9.5 21.3 21.3 0 11.9-9.6 21.4-21.3 21.4z"  horiz-adv-x="1024" />

    
    <glyph glyph-name="right-arrow" unicode="&#58924;" d="M230.4-76.7l460.7 460.7-460.7 460.7 51.2 51.3 512-512-512-512-51.2 51.3z"  horiz-adv-x="1024" />

    
    <glyph glyph-name="gouwuche" unicode="&#59070;" d="M342.848 98.048c-49.792 0-90.112-40.832-90.112-91.008 0-50.24 40.256-91.072 90.112-91.072 49.792 0 90.112 40.832 90.112 91.072-0 50.24-40.32 91.008-90.112 91.008zM342.848-23.296c-16.576 0-30.016 13.632-30.016 30.4 0 16.704 13.44 30.336 30.016 30.336 16.64 0 30.016-13.632 30.016-30.336 0.064-16.768-13.376-30.4-30.016-30.4zM943.552 765.76h-744.896l-5.952 30.336c0 16.832-13.44 30.336-30.016 30.336h-120.128c-16.64 0-30.080-13.504-30.080-30.336 0-16.704 13.44-30.336 30.080-30.336h96.064l114.176-576.64c0-16.768 13.44-30.4 30.016-30.4h540.608c16.576 0 30.016 13.632 30.016 30.4 0 16.832-13.44 30.336-30.016 30.336h-516.544l-24.064 121.408h570.624c4.16 0 8.128 0.896 11.712 2.368 7.168 3.072 12.928 8.96 16 16.192 1.472 3.584 2.368 7.552 2.368 11.84l87.552 352c1.536 3.776 2.496 7.872 2.496 12.096-0 16.832-13.44 30.4-30.016 30.4zM372.928 401.6h-102.144l-60.096 303.488h162.176v-303.488zM553.088 401.6h-150.144v303.488h150.144v-303.488zM733.312 401.6h-150.272v303.488h150.272l0-303.488zM830.912 401.6h-67.584v303.488h143.68l-76.096-303.488zM763.392 98.048c-49.792 0-90.112-40.832-90.112-91.008 0-50.24 40.32-91.072 90.112-91.072 49.728 0 90.048 40.832 90.048 91.072 0 50.24-40.32 91.008-90.048 91.008zM763.392-23.296c-16.704 0-30.080 13.632-30.080 30.4 0 16.704 13.376 30.336 30.080 30.336 16.576 0 30.016-13.632 30.016-30.336-0.064-16.768-13.44-30.4-30.016-30.4z"  horiz-adv-x="1024" />

    
    <glyph glyph-name="qingdan" unicode="&#58972;" d="M658.286 713.143v73.143h-292.571v-73.143h292.571zM329.143 786.286c0 21.943 18.286 36.571 36.571 36.571h292.571c18.286 0 36.571-14.629 36.571-36.571v-73.143c0-21.943-18.286-36.571-36.571-36.571h-292.571c-21.943 0-36.571 14.629-36.571 36.571v73.143zM292.571 237.714h438.857v-36.571h-438.857v36.571zM292.571 384h438.857v-36.571h-438.857v36.571zM365.714 530.286h292.571v-36.571h-292.571v36.571zM285.257 749.714v-36.571h-69.486c-18.286 0-32.914-14.629-32.914-36.571v-658.286c0-21.943 14.629-36.571 32.914-36.571h592.457c18.286 0 32.914 14.629 32.914 36.571v658.286c0 21.943-14.629 36.571-32.914 36.571h-76.8v36.571h76.8c36.571 0 69.486-32.914 69.486-73.143v-658.286c0-40.229-32.914-73.143-69.486-73.143h-592.457c-36.571 0-69.486 32.914-69.486 73.143v658.286c0 40.229 29.257 73.143 69.486 73.143h69.486z"  horiz-adv-x="1024" />

    
    <glyph glyph-name="yiliao1" unicode="&#58884;" d="M533.060267 461.687467h-42.0864v-117.5552h-116.6336v-41.949867h116.6336v-118.0672h42.0864v118.0672h116.6336v41.984h-116.6336v117.521067z m308.565333-382.5664c0-13.380267-10.820267-24.234667-24.064-24.234667H206.4384a24.1664 24.1664 0 0 0-23.995733 24.234667V554.769067c0 13.346133 10.786133 24.234667 23.995733 24.234666h611.1232c13.243733 0 24.029867-10.888533 24.029867-24.234666v-475.648zM377.924267 688.878933c0 13.380267 10.786133 24.234667 24.029866 24.234667h230.1952c13.243733 0 24.029867-10.8544 24.029867-24.234667V625.322667h-278.254933V688.878933zM817.5616 625.322667H702.122667V688.878933A70.314667 70.314667 0 0 1 632.149333 759.466667h-230.1952A70.314667 70.314667 0 0 1 332.117333 688.878933V625.322667h-125.610666A70.314667 70.314667 0 0 1 136.533333 554.769067v-475.648A70.314667 70.314667 0 0 1 206.4384 8.533333h611.1232a70.314667 70.314667 0 0 1 69.9392 70.587734V554.769067a70.314667 70.314667 0 0 1-69.9392 70.5536z"  horiz-adv-x="1024" />

    
    <glyph glyph-name="fankui" unicode="&#59039;" d="M512-26c226.438 0 410 183.563 410 410S738.437 794 512 794 102 610.437 102 384s183.563-410 410-410zM264.513 631.487c32.163 32.163 69.6 57.407 111.271 75.032C418.895 724.754 464.724 734 512 734c47.275 0 93.106-9.246 136.217-27.48 41.671-17.625 79.107-42.869 111.271-75.032 32.162-32.163 57.406-69.6 75.031-111.271C852.754 477.106 862 431.276 862 384c0-47.275-9.246-93.106-27.48-136.217-17.625-41.671-42.868-79.107-75.031-111.271s-69.601-57.406-111.271-75.032C605.106 43.245 559.275 34 512 34c-47.276 0-93.106 9.245-136.217 27.479-41.671 17.625-79.107 42.869-111.271 75.032-32.163 32.162-57.407 69.601-75.032 111.271C171.246 290.894 162 336.724 162 384s9.246 93.106 27.48 136.217c17.625 41.671 42.87 79.107 75.033 111.27z m234.743-407.12h25.488c9.53 0 17.256 10.419 17.256 23.272V631.094c0 12.855-7.726 23.273-17.256 23.273h-25.488c-9.53 0-17.256-10.418-17.256-23.273v-383.453c0-12.855 7.726-23.274 17.256-23.274zM512 113.632c22.092 0 40 17.909 40 40 0 22.092-17.908 40-40 40-22.091 0-40-17.908-40-40 0-22.091 17.909-40 40-40z"  horiz-adv-x="1024" />

    
    <glyph glyph-name="qian" unicode="&#59105;" d="M512-64C265.6-64 64 137.6 64 384S265.6 832 512 832s448-201.6 448-448-201.6-448-448-448z m0 832c-211.2 0-384-172.8-384-384s172.8-384 384-384 384 172.8 384 384-172.8 384-384 384zM512 96c-17.6 0-32 14.4-32 32V416c0 17.6 14.4 32 32 32s32-14.4 32-32v-288c0-17.6-14.4-32-32-32zM672 224H352c-17.6 0-32 14.4-32 32s14.4 32 32 32h320c17.6 0 32-14.4 32-32s-14.4-32-32-32z m0 160H352c-17.6 0-32 14.4-32 32s14.4 32 32 32h320c17.6 0 32-14.4 32-32s-14.4-32-32-32zM512 384c-8 0-16 3.2-22.4 9.6L331.2 552c-12.8 12.8-12.8 32 0 44.8 12.8 12.8 32 12.8 44.8 0l158.4-158.4c12.8-12.8 12.8-32 0-44.8-6.4-6.4-14.4-9.6-22.4-9.6zM512 384c-8 0-16 3.2-22.4 9.6-12.8 12.8-12.8 32 0 44.8L648 596.8c12.8 12.8 32 12.8 44.8 0 12.8-12.8 12.8-32 0-44.8L534.4 393.6C528 387.2 520 384 512 384z"  horiz-adv-x="1024" />

    
    <glyph glyph-name="icglobaltitlebar48iconfontmap" unicode="&#58881;" d="M511.872 125.611c-0.043 0-0.085 0-0.128 0-9.259 0.021-18.091 4.075-24.128 11.115-9.216 10.731-19.285 22.208-29.909 34.325-94.699 107.947-222.507 248.661-222.507 381.056 0 153.621 124.971 278.592 278.592 278.592s278.571-124.971 278.571-278.592c0-135.061-134.549-277.781-231.381-387.2-8.789-9.92-17.173-19.413-25.003-28.373-6.080-6.955-14.869-10.923-24.107-10.923zM513.792 766.699c-118.315 0-214.592-96.256-214.592-214.592 0-146.283 151.957-271.573 214.827-349.291 62.336 81.259 214.315 202.325 214.315 349.291 0.021 118.336-96.235 214.592-214.549 214.592zM513.792 446.421c-67.051 0-121.579 54.549-121.579 121.6s54.549 121.6 121.579 121.6c67.072 0 121.6-54.549 121.6-121.6s-54.528-121.6-121.6-121.6zM513.792 625.621c-31.744 0-57.579-25.835-57.579-57.6s25.835-57.579 57.579-57.579c31.765 0 57.6 25.813 57.6 57.579s-25.835 57.6-57.6 57.6zM930.539-44.416h-837.077c-11.029 0-21.269 5.696-27.115 15.019-5.845 9.344-6.485 21.035-1.664 30.955l123.52 255.637c5.355 11.029 16.533 18.027 28.8 18.027h71.787c17.664 0 32-14.336 32-32 0-17.685-14.336-32-32-32l-51.776-0-92.437-191.637h736.96l-83.627 191.659h-62.208c-17.664 0-32 14.315-32 32 0 17.664 14.336 32 32 32h83.115c12.693 0 24.192-7.531 29.291-19.115l111.723-255.659c4.352-9.899 3.413-21.312-2.496-30.357-5.888-9.067-15.979-14.528-26.795-14.528z"  horiz-adv-x="1024" />

    
    <glyph glyph-name="ditu" unicode="&#58999;" d="M576 873.6c-198.4 0-358.4-160-358.4-358.4 0-192 323.2-588.8 336-604.8l22.4-28.8 22.4 28.8c12.8 16 336 412.8 336 604.8C934.4 713.6 774.4 873.6 576 873.6z m0-899.2c-102.4 128-300.8 409.6-300.8 540.8 0 166.4 134.4 300.8 300.8 300.8s300.8-134.4 300.8-300.8c0-131.2-201.6-412.8-300.8-540.8zM576 672c-89.6 0-160-70.4-160-156.8s70.4-156.8 156.8-156.8 156.8 70.4 156.8 156.8C732.8 601.6 662.4 672 576 672z m0-259.2c-54.4 0-99.2 44.8-99.2 99.2s44.8 99.2 99.2 99.2 99.2-44.8 99.2-99.2-44.8-99.2-99.2-99.2z"  horiz-adv-x="1024" />

    
    <glyph glyph-name="member" unicode="&#58914;" d="M512 896c-282.77 0-512-229.23-512-512s229.23-512 512-512 512 229.23 512 512-229.23 512-512 512zM512 660.94c83.2 0 150.65-62.36 150.65-139.27s-67.45-139.28-150.65-139.28-150.65 62.35-150.65 139.27 67.45 139.28 150.65 139.28zM512 156.46l-236.28 4.33c2.55 116.34 108.4 210.77 236.28 210.77 129.65 0 236.33-97.1 236.33-215.1h-236.33z"  horiz-adv-x="1024" />

    
    <glyph glyph-name="transfer" unicode="&#58915;" d="M1024 355.56c-0.049-4.396-1.097-8.536-2.928-12.218-20.512-263.442-239.992-471.342-509.072-471.342-198.37 0-370.15 113-455.11 277.93v-107.26c0-15.71-12.735-28.445-28.445-28.445s-28.445 12.735-28.445 28.445v170.66c-0 0.003-0 0.006-0 0.010 0 15.707 12.733 28.44 28.44 28.44 0 0 0 0 0 0 9.87-0 18.12-5.35 23.21-12.94l31.35 4.46c62.24-177.15 230.57-304.41 429-304.41 243.060 0 441 190.72 453.89 430.56l2.080 0.28c2.1 13.65 13.37 24.26 27.59 24.26 11.381-0.045 21.175-6.789 25.649-16.491l1.971 0.111c-0.060-1.88-0.4-3.78-0.48-5.66 0.51-2.13 1.31-4.13 1.31-6.4zM348.67 602.51c5.149 5.153 12.265 8.341 20.125 8.341s14.976-3.188 20.125-8.34l122.080-122.11 122.91 122.93c5.195 5.191 12.37 8.402 20.295 8.402 15.857 0 28.712-12.855 28.712-28.712 0-7.932-3.217-15.113-8.417-20.31l-121.83-121.82h101.55c15.71 0 28.445-12.735 28.445-28.445s-12.735-28.445-28.445-28.445h-113.78v-85.33h113.78c15.71-0 28.445-12.735 28.445-28.445s-12.735-28.445-28.445-28.445h-113.78v-113.78c0-15.71-12.735-28.445-28.445-28.445-15.71 0-28.445 12.735-28.445 28.445v113.78h-113.77c-15.71 0-28.445 12.735-28.445 28.445s12.735 28.445 28.445 28.445l113.78 0v85.33h-113.78c-15.71 0-28.445 12.735-28.445 28.445s12.735 28.445 28.445 28.445h100.3l-121.4 121.4c-5.142 5.149-8.321 12.258-8.321 20.11s3.18 14.961 8.322 20.11zM6.54 456.22c-0-15.585 12.635-28.22 28.22-28.22s28.22 12.635 28.22 28.22c0 15.585-12.635 28.22-28.22 28.22-15.585 0-28.22-12.635-28.22-28.22 0 0 0 0 0 0M41.56 227.78h-41.56c0-22.953 18.607-41.56 41.56-41.56s41.56 18.607 41.56 41.56c0 22.953-18.607 41.56-41.56 41.56-0 0-0 0-0 0-22.953 0-41.56-18.607-41.56-41.56M924.56 582.49c-0-0-0-0.001-0-0.001 7.065 24.489 0.001 13.070 0-0M995.56 587.63v166.15c0 15.71-12.735 28.445-28.445 28.445s-28.445-12.735-28.445-28.445l-0-87.72c-91.51 138.46-248.24 229.94-426.67 229.94-257.11 0-469-189.81-505.46-436.76l55.21-12.35c30.72 221.5 220.3 392.22 450.25 392.22 188.27 0 349.35-114.55 418.59-277.56l65 26.080z"  horiz-adv-x="1024" />

    
    <glyph glyph-name="card" unicode="&#58916;" d="M541.73 246.48h-59c-4.52 0-8.22-6.48-8.22-14.39v-1.83c0-7.91 3.7-14.4 8.22-14.4h59c4.52 0 8.22 6.48 8.22 14.4v1.83c0.050 7.91-3.7 14.39-8.22 14.39zM636.17 246.48h-59c-4.53 0-8.22-6.48-8.22-14.39v-1.83c0-7.91 3.7-14.4 8.22-14.4h59c4.53 0 8.23 6.48 8.23 14.4v1.83c0 7.91-3.7 14.39-8.23 14.39zM447.29 246.48h-59c-4.52 0-8.22-6.48-8.22-14.39v-1.83c0-7.91 3.7-14.4 8.22-14.4h59c4.52 0 8.23 6.48 8.23 14.4v1.83c-0.010 7.91-3.71 14.39-8.23 14.39zM730.61 246.48h-59c-4.52 0-8.22-6.48-8.22-14.39v-1.83c0-7.91 3.7-14.4 8.22-14.4h59c4.52 0 8.23 6.48 8.23 14.4v1.83c0 7.91-3.7 14.39-8.23 14.39zM512 896c-282.77 0-512-229.23-512-512s229.23-512 512-512 512 229.23 512 512-229.23 512-512 512zM316 497.9c6.15 0 11.19-5.42 11.19-12v-31.9c0-6.62-5-12-11.19-12h-40.83v-87.17c0-34 15.57-61.79 34.6-61.79 17 0 17-4.72 17-16.12 0-16.4-4.6-16.12-33.38-16.12-28.050 0-51 27.81-51 61.8v216.22c0 34 24.67 61.79 54.82 61.79h328.88c30.15 0 54.82-20.35 54.82-45.23s1.92-34-16.4-34c-11.89 0-16.41 1.83-16.41 17.84s-24.66 29.12-54.82 29.12h-263.28c-30.15 0-54.82-27.81-54.82-61.79v-8.69h40.82zM781.65 229.18c0-34-24.67-61.79-54.83-61.79h-328.92c-30.15 0-54.82 27.81-54.82 61.79v216.27c0 34 24.67 61.79 54.82 61.79h328.92c30.16 0 54.83-27.8 54.83-61.79v-216.27zM736.25 415.62v43.22c0 8.5-6.16 15.45-13.71 15.45h-72.17c-7.54 0-13.71-7-13.71-15.45v-43.22c0-8.5 6.16-15.45 13.71-15.45h72.18c7.54 0 13.7 6.95 13.7 15.45z"  horiz-adv-x="1024" />

    
    <glyph glyph-name="transaction-record" unicode="&#58917;" d="M512 896c-282.88 0-512-229.12-512-512s229.12-512 512-512c0.096-0 0.211-0 0.325-0 53.606 0 105.276 8.285 153.801 23.645-65.386 27.528-112.983 77.973-137.108 140.129l12.412-27.034c-0.47 0.9-1 1.82-1.43 2.75-1.4 2.75-2.78 5.54-4.080 8.36q-2.71 5.79-5.12 11.75-3.65 8.94-6.61 18.21t-5.19 18.77c-0.38 1.6-0.75 3.18-1.1 4.79s-0.69 3.21-1 4.82c-0.22 1.070-0.42 2.15-0.61 3.24s-0.4 2.15-0.57 3.24-0.38 2.18-0.54 3.26c-0.35 2.18-0.65 4.36-0.94 6.55-0.14 1.070-0.28 2.14-0.4 3.22-0.003 0.018-0.005 0.039-0.005 0.060 0 0.021 0.002 0.042 0.005 0.062-0.14 1.098-0.25 2.178-0.36 3.258-0.080 0.85-0.18 1.69-0.25 2.53-0.15 1.56-0.29 3.11-0.4 4.68-0.14 1.75-0.25 3.51-0.35 5.28 0 0.42-0.060 0.83-0.070 1.24-0.11 2.12-0.2 4.26-0.25 6.39s-0.16 4.53-0.16 6.8h-32v128h-224v64h224v96h-224v64h128l-128 160h96l128-160h64l128 160h96l-128-160h128v-64h-224v-96h54.72c42.165 37.341 97.172 61.037 157.641 63.745l-9.531-0.615c0.023 0.003 0.049 0.005 0.075 0.005s0.052-0.002 0.078-0.006c0.997 0.1 1.927 0.17 2.897 0.22s2 0.14 3 0.2c0.78 0.060 1.56 0.1 2.32 0.12 1 0.060 1.92 0.1 2.86 0.13s2 0.080 3 0.1h0.86c2 0 4 0.070 6 0.070 2.28 0 4.55 0 6.82-0.080s4.24-0.14 6.36-0.25l1.53-0.080 2.22-0.14c2.65-0.17 5.28-0.38 7.92-0.64l2.080-0.21q4.46-0.46 8.89-1.080c0.71-0.1 1.4-0.19 2.11-0.31s1.32-0.19 2-0.3c1.15-0.18 2.31-0.36 3.46-0.57q1.44-0.23 2.87-0.5c1.38-0.25 2.76-0.51 4.14-0.79l2.69-0.55c1.070-0.22 2.12-0.44 3.19-0.69s1.94-0.43 2.9-0.67c1.15-0.26 2.31-0.56 3.46-0.85 0.85-0.21 1.68-0.42 2.51-0.64l1.1-0.29c0.9-0.24 1.81-0.49 2.69-0.74l2.14-0.59 2.1-0.61c1-0.29 2-0.6 3-0.92 4-1.24 8-2.58 11.89-4 1.17-0.43 2.32-0.86 3.47-1.31l2.83-1.11 1.86-0.75c-0.4 0.18-0.82 0.35-1.24 0.51l1.67-0.68-0.43 0.17 1.86-0.76c-0.33 0.15-0.68 0.29-1 0.43 0.5-0.2 1-0.4 1.49-0.61l1.49-0.63 0.44-0.19c2-0.83 3.93-1.7 5.86-2.6 31.172-14.39 57.664-33.738 79.665-57.329q-56.435 45.249-58.615 46.499c56.906-33.137 99.274-85.953 118.145-148.924 2.23 77.162 10.515 128.865 10.515 182.504 0 0.109-0 0.218-0 0.327 0 282.863-229.12 511.983-512 511.983zM759 328.78c-102.35 0-185.47-83.12-185.47-185.47s83.16-185.46 185.47-185.46 185.5 83.15 185.5 185.47-83.12 185.46-185.5 185.46zM671.33 263.26h34.67l-21-43.77h156.22v-31.18h-205.84l36 75zM846.7 19.67h-34.6l21 43.71h-156.25v31.24h205.83l-36-75z"  horiz-adv-x="1024" />

    
    <glyph glyph-name="business-outlets" unicode="&#58918;" d="M512 896c-282.77 0-512-229.23-512-512s229.23-512 512-512 512 229.23 512 512-229.23 512-512 512zM309.29 601.92c0.011 10.159 8.249 18.39 18.41 18.39 0.007 0 0.014-0 0.021-0l367.679 0c0.006 0 0.013 0 0.020 0 10.134 0 18.35-8.216 18.35-18.35 0-0.014-0-0.028-0-0.042l0-20.708c-2.287 0.906-4.936 1.434-7.707 1.441l-388.343-0.001c-3.136-0.046-6.108-0.69-8.826-1.824l0.396 21.094zM713.77 166.1c0-0.015 0-0.032 0-0.050 0-10.14-8.22-18.36-18.36-18.36-0.004 0-0.007 0-0.011 0l-367.679-0c-0.006-0-0.013-0-0.020-0-10.168 0-18.41 8.242-18.41 18.41 0 0 0 0 0 0l-0 225.6c16.346 2.568 30.604 10.081 41.541 20.935l-4.701-124.385h330.87v120.92c11.74-10.224 26.812-16.897 43.393-18.21l-6.613-224.86zM726.41 427.69c-4.537 0.013-8.932 0.596-13.125 1.68-4.919 1.197-9.678 3.184-14.018 5.796 8.505-4.053 8.43-4.019 8.347-4.013-9.428 3.617-17.327 9.502-23.27 17.007 7.209-7.53 7.143-7.456 7.113-7.366-5.081 4.207-9.154 9.492-11.906 15.508 7.639-11.441 7.359-11.141 7.059-10.781-1 1.1-2 2.32-2.88 3.46-0.34 0.45-0.69 0.9-0.92 1.25-0.92 1.29-1.74 2.62-2.55 3.95-0.24 0.34-0.43 0.69-0.67 1-4.252 7.529-6.758 16.531-6.76 26.118 0-0.028 0-0.028 0-0.028 0-29.605-24-53.605-53.605-53.605-29.605 0-53.605 24-53.605 53.605 0 0 0 0 0 0-0.413-29.302-24.263-52.898-53.625-52.898-29.362 0-53.212 23.595-53.625 52.859-0.413-29.253-24.255-52.839-53.605-52.839-29.351 0-53.192 23.586-53.605 52.839-0 0.005-0-0.035-0-0.074 0-8.134-1.844-15.837-5.137-22.714-3.027-6.395-7.258-12.094-12.403-16.814l9.71 11.661c-6.318-10.021-15.513-17.725-26.42-22.038 9.342 4.746 9.092 4.616 8.818 4.547-1.048-0.779-2.698-1.649-4.368-2.479-0.729-0.428-1.583-0.734-2.494-0.865-2.433-1.545-7.385-2.962-12.608-3.446 9.262 1.882 9.002 1.802 8.832 1.692-5.235-1.878-11.276-2.963-17.57-2.963-29.586 0-53.57 23.984-53.57 53.57 0 0.012 0 0.023 0 0.035l73.8 79.248h388.49l73.84-79.25c0-0 0-0 0-0 0-29.63-24.020-53.65-53.65-53.65-0.007 0-0.014 0-0.021 0z"  horiz-adv-x="1024" />

    
    <glyph glyph-name="sweep-card" unicode="&#58919;" d="M658.29-51.91h-472.16c-62.408 0-113 50.592-113 113v649.52c0 62.408 50.592 113 113 113h651.74c62.408 0 113-50.592 113-113v-472.9h73.13v492c-0.006 91.841-74.459 166.29-166.3 166.29-0 0-0 0-0 0h-691.4c-91.845 0-166.3-74.455-166.3-166.3v-691.4c0-91.845 74.455-166.3 166.3-166.3h492v76.090zM1024-84.22l-284.4 284.4c40.478 49.632 65 113.669 65 183.434 0 0.136-0 0.271-0 0.407 0 161.559-131 292.549-292.57 292.549s-292.6-130.99-292.6-292.57 130.99-292.57 292.57-292.57c0.115-0 0.25-0 0.386-0 69.765 0 133.802 24.522 183.962 65.418l283.872-284.847 43.78 43.78zM512 164.57c-121.19 0-219.43 98.24-219.43 219.43s98.24 219.43 219.43 219.43 219.43-98.24 219.43-219.43-98.24-219.43-219.43-219.43z"  horiz-adv-x="1024" />

    
    <glyph glyph-name="card-pack" unicode="&#58920;" d="M318.48 302.95v-106.82h387.040v106.82l-193.52-21.95-193.52 21.95zM512 896c-282.77 0-512-229.23-512-512s229.23-512 512-512 512 229.23 512 512-229.23 512-512 512zM748.31 187.7c-0.068-22.064-17.936-39.932-39.994-40l-392.626-0c-22.064 0.068-39.932 17.936-40 39.994l-0 392.606c0.068 22.064 17.936 39.932 39.994 40l392.626 0c22.064-0.068 39.932-17.936 40-39.994l0-392.606zM318.48 433.15h387.040v-94.15h-387.040zM315.69 580.3h392.62v-98.71h-392.62z"  horiz-adv-x="1024" />

    
    <glyph glyph-name="mobile-phone" unicode="&#58921;" d="M486.83 177.23c0-0 0-0 0-0 0-13.901 11.269-25.17 25.17-25.17 13.901 0 25.17 11.269 25.17 25.17 0 0 0 0 0 0 0 0 0 0 0 0 0 13.901-11.269 25.17-25.17 25.17-13.901 0-25.17-11.269-25.17-25.17 0-0 0-0 0-0zM492.31 600.62h39.39c0.094-0.003 0.203-0.005 0.314-0.005 5.44 0 9.85 4.41 9.85 9.85 0 5.44-4.41 9.85-9.85 9.85-0.11 0-0.22-0.002-0.33-0.005l-39.374 0c-0.094 0.003-0.203 0.005-0.314 0.005-5.44 0-9.85-4.41-9.85-9.85 0-5.44 4.41-9.85 9.85-9.85 0.11 0 0.22 0.002 0.33 0.005zM512 896c-282.77 0-512-229.23-512-512s229.23-512 512-512 512 229.23 512 512-229.23 512-512 512zM679.39 187.080c0-32.629-26.451-59.080-59.080-59.080 0 0 0 0 0 0l-216.62 0c-32.629-0-59.080 26.451-59.080 59.080 0 0 0 0 0 0v393.84c0 32.629 26.451 59.080 59.080 59.080h216.62c0 0 0 0 0 0 32.629 0 59.080-26.451 59.080-59.080v-393.84zM383.99 580.92h256.010v-354.46h-256.010v354.46z"  horiz-adv-x="1024" />

    
    <glyph glyph-name="tires" unicode="&#58922;" d="M698.83 350c0-0.062 0-0.135 0-0.208 0-3.76-0.364-7.435-1.059-10.992l41.229-37.38c5.591 14.189 8.832 30.623 8.832 47.814 0 0.269-0.001 0.538-0.002 0.807 0 0.053 0.001 0.165 0.001 0.276 0 13.683-2.013 26.896-5.76 39.359l-43.67-33.126c0.273-2.106 0.43-4.544 0.432-7.019zM608.67 425.7c-0.67-1-1.41-1.9-2.080-2.88l41.16-37.73c3.925 3.613 8.808 6.245 14.223 7.474l-6.933 63.436c-18-3.25-34.12-14.27-46.37-30.32zM645.17 317.53l-43.92-32.16c7.896-13.447 18.206-24.631 30.434-33.282-10.764 6.152 5.316-4.868 23.316-8.088v65.9c-5.809 2.932-10.47 7.418-13.537 12.914zM677.57 309.87v-66c18 3.31 34.12 14.27 46.37 30.32 0.74 0.92 1.41 1.9 2.080 2.88l-41.15 37.83c-3.961-3.634-8.882-6.283-14.34-7.524zM677.57 456.010v-66c5.91-2.976 10.664-7.507 13.83-13.061l39.94 37.561c-8.152 13.893-18.776 25.458-31.374 34.43 11.714-7.28-4.396 3.79-22.396 7.040zM512 896c-282.77 0-512-229.23-512-512s229.23-512 512-512 512 229.23 512 512-229.23 512-512 512zM249.42 575.53c0.152 11.63 9.616 21 21.268 21 0.018 0 0.036-0 0.055-0l255.647 0c0.012 0 0.027 0 0.042 0 11.652 0 21.116-9.37 21.268-20.986l0-29.594c-43.629-16.439-78.513-47.692-99.233-87.496l-177.727 20.606c-0.039-0-0.085-0-0.131-0-11.636 0-21.082 9.379-21.189 20.99l-0 75.48zM423.74 338.73h-152.94c-0.039-0-0.085-0-0.131-0-11.636 0-21.082 9.379-21.189 20.99l-0 75.54c0.102 11.62 9.545 21 21.179 21 0.025 0 0.050-0 0.075-0l180.566 0c-17.89-31.050-28.050-67.74-28.050-107.25 0-3.49 0.31-6.86 0.49-10.29zM314.23 198.45h-43.49c-0.039-0-0.085-0-0.131-0-11.636 0-21.082 9.379-21.189 20.99l-0 75.48c0.113 11.666 9.597 21.080 21.279 21.080 0.014 0 0.029-0 0.043-0l154.098 0c5.15-45.75 23.89-86.73 52.8-117.54h-163.41zM628.7 161.22c-103.57 0-177.13 84.1-177.13 187.79s73.56 187.8 177.13 187.8 170.46-84.1 170.46-187.81-66.89-187.78-170.46-187.78zM633.84 349.93c-0 0.072-0.001 0.157-0.001 0.242 0 3.727 0.364 7.37 1.059 10.894l-41.168 37.435c-5.666-14.24-8.951-30.741-8.951-48.010 0-0.172 0-0.345 0.001-0.517-0-0.067-0-0.178-0-0.29 0-13.684 2.013-26.897 5.76-39.36l43.67 33.067c-0.236 1.962-0.37 4.233-0.37 6.536 0 0.005 0 0.010 0 0.014zM667.53 483.15c-63.76 0-109-60-109-134.14s45.33-134.14 109-134.14 104.92 60.030 104.92 134.13-41.16 134.15-104.92 134.15zM665.45 228.29c-51.69 0-93.59 54-93.59 120.72s42 120.72 93.59 120.72 93.55-54.010 93.55-120.73-41.89-120.72-93.59-120.72z"  horiz-adv-x="1024" />

    
    <glyph glyph-name="insurance" unicode="&#58923;" d="M611.32 367.74v0zM570.090 442.6l51.74-0.45v24.24l-68.060-0.64v14.59q30.070 0 45.92-0.85-2.090 45.67 0 75.51-59.47-1.24-116.8 0v-75.51q15.4 0.64 43.37 0.87v-14.6l-63.4 0.65v-24.24l50.1 0.45c-6.2-13.74-16.23-26.060-21.1-28.82-11.598-12.247-27.129-20.664-44.564-23.224 23.325-12.217 33.592-30.012 38.796-49.857q19.698 46.921 40.208 72.911l-0.71-52.33h28.91l-0.69 60.51q17.47-35.41 57.56-54.060c9.508 20.118 23.052 36.921 39.696 49.944q-59.066-13.954-80.976 24.906zM510.55 503.52v27.67h60.61v-27.67h-60.61zM457 504h-3.49c22.504 46.898 37.976 101.422 43.383 158.873-41.165-105.276-56.873-98.417-70.733-89.034q8.16-70.099-24.92-95.599 9.34-11.2 16.79-27.9c18.574 22.67 32.7 49.753 40.589 79.381l-27.999-139.721-0.95-28.090h27.76q-2.77 79.41-0.43 142.090zM512 896c-282.77 0-512-229.23-512-512s229.23-512 512-512 512 229.23 512 512-229.23 512-512 512zM489.13 147.69h-86.28l6.65 18.25s-13.13 20-46.45 30.4-63.12 48.060-73 66.91-17 79.56-13.5 112.75c0.642 13.31 6.008 25.255 14.444 34.299 8.556 9.591 9.226 12.911 18.946 11.121s6.65-30.42 6.65-30.42-0.74-87.41 6.64-97.33 9.75-6.48 13.25 0-2.73 17.4 0 30.42 13.28 6.090 13.28 6.090c11.74-33 13.27-36.48 13.27-36.48 15.34-38 66.35-54.76 66.35-54.76 45.82-10.76 59.72-54.73 59.75-54.76v-36.48zM382.33 611.4s79-44.16 129.86 8.91c0 0 57.38-45.82 131.79-5.84 0.2-0.34 154.85-262.69-131.79-332.65 0 0-279.49 61.1-129.86 329.58zM734 263.53c-9.91-18.9-39.86-56.61-73.36-67.060s-46.64-30.47-46.64-30.47l6.66-18.29h-86.66v36.58s14 44.080 60 54.86c0 0 51.23 16.78 66.66 54.85 0 0 1.57 3.51 13.35 36.54 0 0 10.55 6.95 13.32-6.080s-3.53-24 0-30.46 5.94-10 13.34 0 6.69 97.52 6.69 97.52-3.11 28.68 6.64 30.48 10.44-1.53 17.94-10c9.064-9.178 14.889-21.573 15.609-35.321 3.511-33.429-3.629-94.249-13.549-113.149z"  horiz-adv-x="1024" />

    
    <glyph glyph-name="car" unicode="&#58925;" d="M350.2 309.23c0-20.838 14.913-37.73 33.31-37.73s33.31 16.892 33.31 37.73c0 20.838-14.913 37.73-33.31 37.73-18.397 0-33.31-16.892-33.31-37.73zM404 424.73h216.38c15.9 0 35 14.22 36.24 32.23l-5.45 24.62-14.89 67.21c-1.34 8.44-4.36 17.54-9.22 24.63h-229.43c-4.81-6.89-8.060-15.79-9.52-24.72l-0.2-1-20.12-90.7c1.21-18 20.33-32.27 36.21-32.27zM483.1 545.82c0 5.14 3.68 9.31 8.23 9.31h43.22c4.55 0 8.23-4.17 8.23-9.31l0.68-7.92c0-5.14-3.68-9.32-8.23-9.32h-44.6c-4.54 0-8.23 4.18-8.23 9.32zM559.67 342.070h-93.46c-5.47 0-9.91-5-9.91-11.21v-31.53c0-6.2 4.44-11.22 9.91-11.22h93.46c5.47 0 9.91 5 9.91 11.22v31.53c0 6.2-4.44 11.21-9.91 11.21zM640.89 347c-18.4 0-33.33-16.89-33.33-37.73s14.93-37.73 33.33-37.73 33.32 16.89 33.31 37.73-14.9 37.73-33.31 37.73zM512 896c-282.77 0-512-229.23-512-512s229.23-512 512-512 512 229.23 512 512-229.23 512-512 512zM748.31 441.18c0-7.7-5.52-14-12.33-14l-16.39-3.16c5.31-11.76 8.35-25.17 8.35-40.81l6.21-80.35c-0.018-2.665-0.183-5.271-0.489-7.834 0.339-0.687 0.488-2.334 0.49-4.017l-0.001-118.289c0-13.75-9.86-24.91-22-24.91h-33.59c-12.15 0-22 11.15-22 24.91v53h-288.71v-53c0-13.75-9.85-24.91-22-24.91h-33.59c-12.14 0-22 11.15-22 24.91v118.57c0.016 1.694 0.18 3.339 0.478 4.937-0.329 1.814-0.478 4.387-0.479 6.995l6.211 80.038c0 15.6 3 29 8.31 40.72l-16.78 3.25c-6.8 0-12.32 6.25-12.32 14v12.070c0 7.73 5.52 14 12.32 14h44.3c2.353-0.053 4.515-0.828 6.285-2.109l19.845 90.319c5.47 32.28 26.080 64.67 60 64.67h187.52c29.58 0 53.64-26 60-64.71l20-90c1.674 1.095 3.721 1.754 5.921 1.772l44.129-0.002c6.81 0 12.32-6.25 12.32-14v-12.11z"  horiz-adv-x="1024" />

    
    <glyph glyph-name="gas-up" unicode="&#58926;" d="M377.42 602.21h188.85v-127h-188.85zM623.8 416.44c0 5-0.070 10.4-0.34 16.38-1.37 26.61 14.43 39.51 28.42 44.6-8.31 18.13-40.16 42-64.75 55.86v-289c0.741 0.191 1.591 0.301 2.467 0.301 0.481 0 0.953-0.033 1.416-0.097 19.746-2.734 35.216-0.334 44.656 6.946 5.714 4.388 9.569 10.952 10.321 18.432l2.879 102.628c-24.87 4.75-25 24.63-25.070 43.95zM412.45 337.22h111.92v-32.97h-111.92zM412.45 387.34h111.92v-23.36h-111.92zM665.84 459.51c-0.346-0.117-0.745-0.192-1.159-0.208-3.121-0.342-21.591-3.352-20.461-25.412 0.31-6.36 0.34-12.14 0.38-17.34 0.14-23 0.14-23.94 15.19-24.29l0.41-0.070c0.062-0.008 0.133-0.013 0.205-0.013s0.143 0.005 0.213 0.013c3.342-0.171 6.112 5.749 7.102 8.379v45.12c0 7.25-0.65 11.49-1.27 13.82-0.092-0.016-0.197-0.025-0.305-0.025-0.108 0-0.213 0.009-0.316 0.027zM512 896c-282.77 0-512-229.23-512-512s229.23-512 512-512 512 229.23 512 512-229.23 512-512 512zM688.48 399c0-0.020 0-0.043 0-0.066 0-0.912-0.124-1.795-0.357-2.633-1.984-7.631-7.784-19.121-18.454-23.361l-3.18-106c-1.637-13.591-8.873-25.226-19.298-32.694-8.992-7.326-23.282-11.606-41.042-11.606-6.447 0.009-12.771 0.501-18.948 1.441 0.177 0.052-0.423 0.322-0.954 0.684l0.812-43.455h11.83c2.81 0 5-1.33 5-3.080v-27.4c0-1.74-2.22-3.15-5-3.15h-258.38c-2.77 0-5 1.4-5 3.15v27.4c0 1.74 2.22 3.080 5 3.080h14.23v411.22c0 15.32 9.68 27.77 21.65 27.77h189.090c11.94 0 21.65-12.45 21.65-27.77v-38.58c0.763 0.202 1.639 0.318 2.543 0.318 1.774 0 3.443-0.447 4.902-1.235 7.295-3.973 66.265-37.123 78.135-71.903 2.406-0.68 4.504-1.742 6.341-3.132 8.159-3.748 9.459-20.338 9.429-32.308v-46.69z"  horiz-adv-x="1024" />

    
    <glyph glyph-name="service" unicode="&#58927;" d="M656 222.37l-6.4-23.87 19.4-19.41 23.89 6.41 6.4 23.91-19.38 19.39-23.91-6.43zM512 896c-282.77 0-512-229.23-512-512s229.23-512 512-512 512 229.23 512 512-229.23 512-512 512zM279.18 527.15l57.090-57.090 55.93 15 15 55.92-57.080 57.080c7.908 2.23 16.989 3.512 26.369 3.512 55.643 0 100.75-45.107 100.75-100.75 0-9.655-1.358-18.993-3.894-27.833 0.814 0.121 1.484-0.409 2.104-1.049l30.55-30.6c-2.644-0.632-5.68-0.997-8.801-1.003-1.19 0.012-2.737 0.115-4.257 0.306l-5.092 0.557-41.49-41.5 8.11-8.080 17.92-17.94-16.61-16.61-47.6 47.63c-0.327 0.295-0.582 0.662-0.742 1.077-8.955-3.919-19.755-5.756-30.984-5.756-55.659 0-100.78 45.121-100.78 100.78 0 9.373 1.28 18.447 3.673 27.057zM710.24 169.88c-8.608-8.607-20.5-13.931-33.635-13.931s-25.027 5.324-33.635 13.931l-150.69 150.7 16.6 16.59 26-26 41.53 41.53-0.61 5.49c-0.148 1.271-0.233 2.745-0.233 4.237 0 2.992 0.34 5.906 0.983 8.703l133.65-133.96c8.625-8.611 13.961-20.515 13.961-33.665 0-13.13-5.32-25.018-13.921-33.625zM619.17 411.29c-1.657 0.197-3.576 0.31-5.522 0.31-27.255 0-49.35-22.095-49.35-49.35 0-1.952 0.113-3.877 0.334-5.77l-29.542-29.29-26 26-127.66-127.57 4.7-4.67-19.72-24.52-65.090-41.19-10.52 10.52 41.2 65.070 24.48 19.74 4.68-4.67 127.61 127.59-26 26 29.52 29.54c1.671-0.201 3.605-0.315 5.566-0.315 27.228 0 49.3 22.072 49.3 49.3 0 1.964-0.115 3.902-0.338 5.806l129.182 128.929 72.34-72.33z"  horiz-adv-x="1024" />

    
    <glyph glyph-name="application-card" unicode="&#58928;" d="M380.33 278.75h184.62v-52.94h-184.62zM380.33 383.38h263.39v-51.7h-263.39zM512 540.9c0.168-0.004 0.367-0.007 0.565-0.007 7.1 0 13.48 3.083 17.875 7.984 4.599 4.881 7.414 11.446 7.414 18.669 0 0.159-0.001 0.318-0.004 0.477 0.004 0.127 0.005 0.306 0.005 0.484 0 14.271-11.569 25.84-25.84 25.84-14.271 0-25.84-11.569-25.84-25.84 0-0.179 0.002-0.357 0.005-0.535-0.003-0.108-0.004-0.268-0.004-0.427 0-7.218 2.81-13.779 7.397-18.65 4.412-4.915 10.804-8.002 17.916-8.002 0.18 0 0.359 0.002 0.537 0.006zM380.33 489.23h263.39v-52.94h-263.39zM512 896c-282.77 0-512-229.23-512-512s229.23-512 512-512 512 229.23 512 512-229.23 512-512 512zM748.31 174.14q0-20.93-16-36.92t-36.92-16h-366.79q-20.93 0-36.92 16t-16 36.92v366.79q0 20.93 16 36.92t36.92 16h109.55c7.028 19.19 20.427 34.643 37.584 44.133q10.426 8.777 36.256 8.797t45.53-14.78c15.824-11.878 27.136-29.017 31.361-48.784l106.519 10.634q20.93 0 36.92-16t16-36.92v-366.8z"  horiz-adv-x="1024" />

    
    <glyph glyph-name="recently-a-deal" unicode="&#58929;" d="M924 896h-824c-55.228 0-100-44.772-100-100v-824c0-55.228 44.772-100 100-100h824c55.228 0 100 44.772 100 100v824c0 55.228-44.772 100-100 100zM210.74 707.86c0.017 15.098 12.26 27.33 27.36 27.33 0.014 0 0.028-0 0.042-0l546.418 0c0.006 0 0.013 0 0.020 0 15.066 0 27.28-12.214 27.28-27.28 0-0.018-0-0.035-0-0.053l0-30.777c-3.399 1.346-7.335 2.131-11.454 2.142l-577.136-0.002c-4.667-0.071-9.090-1.034-13.133-2.725l0.603 31.365zM811.86 60.17c0-0.024 0-0.052 0-0.080 0-15.066-12.214-27.28-27.28-27.28-0.007 0-0.014 0-0.021 0l-546.429-0c-0.009-0-0.019-0-0.030-0-15.111 0-27.36 12.249-27.36 27.36 0 0 0 0 0 0l-0 335.28c24.294 3.815 45.486 14.981 61.74 31.115l-6.98-184.865h491.7v179.71c17.446-15.194 39.845-25.112 64.486-27.064l-9.826-334.166zM830.64 448.93c-6.738 0.018-13.266 0.883-19.495 2.492-7.322 1.786-14.399 4.744-20.851 8.634 12.65-6.039 12.539-5.99 12.416-5.983-14.018 5.358-25.759 14.082-34.6 25.214 10.711-11.157 10.614-11.049 10.57-10.916-7.536 6.248-13.578 14.095-17.658 23.026 11.337-16.986 10.917-16.496 10.477-15.996-1.53 1.63-2.93 3.45-4.27 5.14-0.51 0.67-1 1.34-1.37 1.85-1.37 1.91-2.58 3.89-3.8 5.87-0.35 0.51-0.64 1-1 1.53-6.293 11.174-10 24.531-10 38.753 0 0.009 0 0.019 0 0.028-0-0.001-0-0.001-0-0.001 0-43.998-35.667-79.665-79.665-79.665-43.998 0-79.665 35.667-79.665 79.665 0 0 0 0 0 0-0.504-43.631-35.992-78.807-79.695-78.807-43.703 0-79.191 35.176-79.695 78.76-0.505-43.567-35.979-78.73-79.665-78.73-43.687 0-79.161 35.162-79.665 78.73-0 0.017-0-0.019-0-0.056 0-12.112-2.751-23.581-7.663-33.817-4.502-9.507-10.795-17.978-18.445-24.991 14.438 17.491 14.378 17.391 14.378 17.331-9.386-14.895-23.050-26.347-39.257-32.759 13.876 7.060 13.503 6.874 13.096 6.777-1.559-1.158-4.009-2.458-6.499-3.688-1.087-0.642-2.361-1.101-3.72-1.298-3.65-2.353-11.064-4.51-18.888-5.26 13.988 2.918 13.598 2.788 13.348 2.638-7.792-2.799-16.782-4.417-26.15-4.417-43.967 0-79.61 35.643-79.61 79.61 0 0.003 0 0.005 0 0.008l109.67 117.77h577.4l109.73-117.77c-0.034-44.008-35.717-79.67-79.73-79.67-0.011 0-0.021 0-0.032 0z"  horiz-adv-x="1024" />

    
    <glyph glyph-name="recharge" unicode="&#58930;" d="M512 896c-282.77 0-512-229.23-512-512s229.23-512 512-512 512 229.23 512 512-229.23 512-512 512zM507.11 153.070c-127.89 0.080-231.49 103.64-231.42 231.29s103.82 231.1 231.7 231 231.51-103.62 231.43-231.29c0 0-1.73-20.7-20.9-20.28s-21.2 20-21.2 20c0.080 104.64-84.84 189.52-189.65 189.57s-189.84-84.69-189.9-189.36 84.83-189.49 189.66-189.55c0 0 20.89 0.66 20.89-20.65s-20.61-20.73-20.61-20.73zM528.84 286.82c0-7.884-6.391-14.275-14.275-14.275-7.884 0-14.275 6.391-14.275 14.275l-0 35.58h-42.42c-7.936 0-14.37 6.434-14.37 14.37 0 7.936 6.434 14.37 14.37 14.37h42.41v21.59h-42.41c-7.942 0-14.38 6.438-14.38 14.38 0 7.942 6.438 14.38 14.38 14.38h42.41v8.87l-52.82 53.28c-2.534 2.596-4.098 6.15-4.098 10.069 0 4.009 1.636 7.636 4.277 10.249 2.573 2.602 6.141 4.213 10.086 4.213 3.945 0 7.513-1.611 10.084-4.21l48.001-48.211 45.34 48c2.59 2.744 6.252 4.452 10.313 4.452 3.813 0 7.275-1.506 9.822-3.956 2.701-2.625 4.379-6.297 4.379-10.362 0-3.87-1.521-7.385-3.999-9.979l-52.825-55.634v-6.79h43.16c7.936-0 14.37-6.434 14.37-14.37 0-7.936-6.434-14.37-14.37-14.37h-43.17v-21.61h43.17c7.936-0 14.37-6.434 14.37-14.37 0-7.936-6.434-14.37-14.37-14.37h-43.17v-35.59zM727.63 224.19h-51v-50.91c0-11.421-9.259-20.68-20.68-20.68-11.421 0-20.68 9.259-20.68 20.68l-0 50.9h-51c-0.135-0.003-0.295-0.005-0.454-0.005-11.405 0-20.65 9.245-20.65 20.65 0 11.405 9.245 20.65 20.65 20.65 0.16 0 0.319-0.002 0.478-0.005l50.976 0v50.93c0 11.421 9.259 20.68 20.68 20.68 11.421 0 20.68-9.259 20.68-20.68v-50.93h51c0.134 0.003 0.291 0.005 0.449 0.005 11.405 0 20.65-9.245 20.65-20.65 0-11.405-9.245-20.65-20.65-20.65-0.162 0-0.323 0.002-0.483 0.006z"  horiz-adv-x="1024" />

    
    <glyph glyph-name="selection-card2" unicode="&#58931;" d="M687.67 562.24c0 25.88-25.65 47-57 47h-342.090c-31.36 0-57-28.92-57-64.26v-224.89c0-35.34 23.87-64.27 53-64.27 29.94 0 34.72-0.29 34.72 16.76 0 11.85 0 16.76-17.65 16.76-19.79 0-36 28.92-36 64.26v90.66h42.5c6.4 0 11.64 5.63 11.64 12.52v33.16c0 6.88-5.24 12.52-11.64 12.52h-42.45v9c0 35.34 25.66 64.26 57 64.26h273.83c31.36 0 57-13.63 57-30.28s4.7-18.56 17.070-18.56c19.050 0 17.060 9.44 17.060 35.32zM792.43 447.91c0 35.35-25.66 64.26-57 64.26h-342.090c-31.36 0-57-28.92-57-64.26v-224.91c0-35.35 25.66-64.27 57-64.27h342.070c31.36 0 57 28.92 57 64.27v224.91zM745.22 416.91c0-8.84-6.41-16.070-14.25-16.070h-75.070c-7.85 0-14.25 7.23-14.25 16.070v44.92c0 8.84 6.41 16.060 14.25 16.060h75.1c7.85 0 14.26-7.23 14.26-16.060v-44.95zM453.22 224.13c0-8.23-3.85-15-8.55-15h-61.31c-4.7 0-8.55 6.74-8.55 15v1.87c0 8.23 3.85 15 8.55 15h61.34c4.7 0 8.55-6.74 8.55-15v-1.91zM551.44 224.13c0-8.23-3.85-15-8.55-15h-61.31c-4.7 0-8.55 6.74-8.55 15v1.87c0 8.23 3.85 15 8.55 15h61.34c4.7 0 8.55-6.74 8.55-15v-1.91zM649.66 224.13c0-8.23-3.85-15-8.56-15h-61.3c-4.71 0-8.55 6.74-8.55 15v1.87c0 8.23 3.85 15 8.55 15h61.33c4.71 0 8.56-6.74 8.56-15v-1.91zM747.88 224.13c0-8.23-3.85-15-8.55-15h-61.33c-4.7 0-8.55 6.74-8.55 15v1.87c0 8.23 3.85 15 8.55 15h61.34c4.7 0 8.55-6.74 8.55-15v-1.91zM512 896c-282.77 0-512-229.23-512-512s229.23-512 512-512 512 229.23 512 512-229.23 512-512 512zM512-80.36c-256.46 0-464.36 207.9-464.36 464.36s207.9 464.36 464.36 464.36 464.36-207.9 464.36-464.36-207.9-464.36-464.36-464.36z"  horiz-adv-x="1024" />

    
    <glyph glyph-name="search" unicode="&#58932;" d="M72.29 436.76c0 216.070 175.14 391.24 391.21 391.24s391.2-175.18 391.2-391.24-175.13-391.21-391.2-391.21-391.21 175.14-391.21 391.21zM752.050 79.49l207.55-207.49 60.15 60.16-206.75 206.78c68.212 79.405 109.74 183.453 109.74 297.2 0 0.218-0 0.436-0 0.654 0 253.606-205.6 459.206-459.24 459.206s-459.24-205.6-459.24-459.24 205.6-459.25 459.24-459.25c0.196-0 0.427-0 0.659-0 109.49 0 209.993 38.481 288.721 102.656z"  horiz-adv-x="1024" />

    
    <glyph glyph-name="menu" unicode="&#58933;" d="M54.722 753.13c-30.221 0-54.72-24.499-54.72-54.72s24.499-54.72 54.72-54.72c30.221 0 54.72 24.499 54.72 54.72 0 30.221-24.499 54.72-54.72 54.72-0 0-0 0-0 0zM54.722 438.81c-30.221 0-54.72-24.499-54.72-54.72s24.499-54.72 54.72-54.72c30.221 0 54.72 24.499 54.72 54.72 0 30.221-24.499 54.72-54.72 54.72-0 0-0 0-0 0zM54.722 124.31c-30.221 0-54.72-24.499-54.72-54.72s24.499-54.72 54.72-54.72c30.221 0 54.72 24.499 54.72 54.72 0 30.221-24.499 54.72-54.72 54.72-0 0-0 0-0 0zM1006.832 730.22h-736c-8.837 0-16-7.163-16-16v-32c0-8.837 7.163-16 16-16h736c8.837 0 16 7.163 16 16v32c0 8.837-7.163 16-16 16zM1008.002 421.7h-736c-8.837 0-16-7.163-16-16v-32c0-8.837 7.163-16 16-16h736c8.837 0 16 7.163 16 16v32c0 8.837-7.163 16-16 16zM751.842 105.22h-479.84c-8.837 0-16-7.163-16-16v-32c0-8.837 7.163-16 16-16h479.84c8.837 0 16 7.163 16 16v32c0 8.837-7.163 16-16 16z"  horiz-adv-x="1024" />

    
    <glyph glyph-name="gas" unicode="&#58934;" d="M512 896c-282.77 0-512-229.23-512-512s229.23-512 512-512 512 229.23 512 512-229.23 512-512 512zM455.49 563.77h-5.87s-7.13 0.33-12.13-4.38c-4.050-3.83-5.72-10.090-6.31-15.94h24.31v-28.69h-24.58v-11.73h24.58v-28.69h-24.58v-27.14c0-25.59-7.45-43.39-15-55.36-5.54-8.87-11.11-14.56-13.74-17.81-0.21-0.26-0.43-0.5-0.66-0.76-10-12-21.43-23-32.77-33.92-33.11-31.84-64.39-61.93-64.39-113.24 0-17.19 4.52-57.15 46.27-57.15 34.21 0 51.56 27.080 51.56 80.45v106.28c16.914 14.852 30.16 33.466 38.48 54.561-11.975-25.407-5.005-11.385-1.73 4.004l-8.050-164.785c0-95-50.28-109.15-80.26-109.15-45.53 0-75 33.69-75 85.84 0 63.52 38.88 100.92 73.19 133.91 4.68 4.5 9.23 8.9 13.59 13.25 6.19 6.19 12 12.34 17.13 18.57 12.48 15.090 21.2 30.8 22.6 49.67v96.16c0 18.82 5.43 33.33 16.11 43.1 13 11.82 28.69 11.88 32.84 11.65l4.43-0.060zM467 588c0.011 21.888 17.752 39.629 39.639 39.64l202.001 0c0 0 0 0 0 0 21.899 0 39.653-17.744 39.67-39.638l0-74.722h-29.36v46.16c0 0.006 0 0.013 0 0.020 0 10.946-8.874 19.82-19.82 19.82-0 0-0-0-0-0l-183 0c-10.943-0.011-19.81-8.885-19.81-19.83 0-0.004 0-0.007 0-0.011l-0-46.119h-29.32v74.68zM748.31 186.29c-0.011-21.903-17.767-39.654-39.669-39.66l-202.001-0c-21.893 0.017-39.634 17.766-39.64 39.659l-0 315.561h29.34v-46.14c-0-0.003-0-0.006-0-0.010 0-10.935 8.865-19.8 19.8-19.8 0.004 0 0.007 0 0.011 0l182.999-0c0.009-0 0.019-0 0.030-0 10.93 0 19.79 8.86 19.79 19.79 0 0.007-0 0.014-0 0.021l0 46.139h29.36v-315.56z"  horiz-adv-x="1024" />

    
    <glyph glyph-name="store" unicode="&#58935;" d="M512 896c-282.77 0-512-229.23-512-512s229.23-512 512-512 512 229.23 512 512-229.23 512-512 512zM333.31 576.090c0.011 8.955 7.273 16.21 16.23 16.21 0.007 0 0.014-0 0.021-0l324.109 0c0.003 0 0.007 0 0.010 0 8.936 0 16.18-7.244 16.18-16.18 0-0.011-0-0.021-0-0.032l0-18.248c-2.017 0.799-4.353 1.265-6.796 1.271l-342.324-0.001c-2.762-0.040-5.381-0.607-7.776-1.605l0.346 18.585zM689.86 191.93c0-0.015 0-0.032 0-0.050 0-8.936-7.244-16.18-16.18-16.18-0.004 0-0.007 0-0.011 0l-324.109-0c-0.006-0-0.013-0-0.020-0-8.964 0-16.23 7.266-16.23 16.23 0 0 0 0 0 0l-0 198.86c14.41 2.263 26.979 8.886 36.621 18.455l-4.141-109.645h291.64v106.59c10.348-9.012 23.634-14.894 38.25-16.052l-5.83-198.208zM701 422.51c-3.994 0.010-7.864 0.521-11.556 1.474-4.351 1.061-8.548 2.815-12.376 5.122 7.501-3.579 7.435-3.548 7.361-3.544-8.314 3.186-15.278 8.371-20.519 14.984 6.352-6.631 6.294-6.566 6.267-6.486-4.479 3.711-8.069 8.372-10.495 13.677 6.737-10.097 6.497-9.827 6.227-9.507-0.91 1-1.74 2-2.53 3-0.3 0.4-0.6 0.79-0.81 1.1-0.81 1.13-1.53 2.31-2.25 3.48-0.21 0.3-0.38 0.61-0.59 0.91-3.77 6.648-5.994 14.6-6 23.072 0-26.167-21.154-47.322-47.25-47.322-26.095 0-47.25 21.155-47.25 47.25 0-26.107-21.163-47.27-47.27-47.27-26.107 0-47.27 21.163-47.27 47.27-0-26.095-21.155-47.25-47.25-47.25-26.095 0-47.25 21.155-47.25 47.25 0-0.015 0-0.032 0-0.050 0-7.188-1.634-13.995-4.551-20.069-2.677-5.64-6.417-10.665-10.963-14.823l8.583 10.282c-5.575-8.821-13.683-15.599-23.296-19.39 8.241 4.183 8.020 4.073 7.779 4.016-0.923-0.686-2.383-1.466-3.853-2.196-0.646-0.38-1.402-0.651-2.208-0.768-2.176-1.423-6.595-2.725-11.261-3.182 8.359 1.769 8.129 1.699 7.979 1.599-4.616-1.656-9.941-2.613-15.49-2.613-26.079 0-47.22 21.141-47.22 47.22 0 0.012 0 0.023 0 0.035l65.050 69.858h342.48l65.090-69.86c-0.011-26.109-21.179-47.27-47.29-47.27-0.007 0-0.014 0-0.021 0z"  horiz-adv-x="1024" />

    
    <glyph glyph-name="refueling2" unicode="&#58936;" d="M511.81 374.85l-41.16-94.14c-3.131-5.964-4.978-13.026-5.002-20.518 0.002 0.282 0.002 0.24 0.002 0.197 0-25.405 20.595-46 46-46 0.042 0 0.084 0 0.127 0 25.153-0 45.733 20.58 46.113 46.12-0.080 7.503-1.976 14.546-5.268 20.733zM492.75 438.12v51.46c0 0.021 0 0.047 0 0.072 0 6.285-5.095 11.38-11.38 11.38-1.824 0-3.548-0.429-5.076-1.192l-100.554-51.050c-11.050-5.72-6.86-21.73 5-22.11h100.58c0.060-0.001 0.131-0.002 0.202-0.002 6.202 0 11.23 5.028 11.23 11.23 0 0.074-0.001 0.149-0.002 0.223zM512 896c-282.77 0-512-229.23-512-512s229.23-512 512-512 512 229.23 512 512-229.23 512-512 512zM541.54 601.25c-0.001 0.057-0.001 0.124-0.001 0.191 0 10.422 8.448 18.87 18.87 18.87 0.067 0 0.134-0 0.201-0.001l50.3 0c0.066 0.001 0.143 0.001 0.221 0.001 10.422 0 18.87-8.448 18.87-18.87 0-0.067-0-0.134-0.001-0.202l0-43.82h-88.46v43.83zM681.8 182c0-0.042 0-0.091 0-0.14 0-18.866-15.294-34.16-34.16-34.16-0.049 0-0.099 0-0.148 0l-270.992-0c-0.042-0-0.091-0-0.14-0-18.866 0-34.16 15.294-34.16 34.16 0 0.049 0 0.099 0 0.148l-0 267.162c-0 0.041-0 0.089-0 0.137 0 13.19 7.511 24.626 18.489 30.264l123.681 64.089c7.62 4.19 16.77 6.1 25.54 6.1h137.2c19.009-0.027 34.438-15.322 34.68-34.278l0-333.482z"  horiz-adv-x="1024" />

    
    <glyph glyph-name="inflated" unicode="&#58937;" d="M512 896c-282.77 0-512-229.23-512-512s229.23-512 512-512 512 229.23 512 512-229.23 512-512 512zM552.57 128.22c100.13 114-118.53 92.060-15.11 254.65-197.35-95.1-81-238.45-71.52-254.87-139.73 37.21-136 170.43-99.61 247 2.12 4.45 11 20.48 15 26.38 13.24 19.26 67.63 77.46 57.74 134.53 0 0 35.11-45.61 21-117 62 69 73.7 178.93 64.3 221.060 139.98-97.75 250.63-432.58 28.2-511.75z"  horiz-adv-x="1024" />

    
    <glyph glyph-name="merchant" unicode="&#58938;" d="M0 896v-1024h1024v1024h-1024zM210.74 707.86c0.017 15.098 12.26 27.33 27.36 27.33 0.014 0 0.028-0 0.042-0l546.418 0c0.006 0 0.013 0 0.020 0 15.066 0 27.28-12.214 27.28-27.28 0-0.018-0-0.035-0-0.053l0-30.777c-3.399 1.346-7.335 2.131-11.454 2.142l-577.136-0.002c-4.667-0.071-9.090-1.034-13.133-2.725l0.603 31.365zM811.86 60.17c0-0.024 0-0.052 0-0.080 0-15.066-12.214-27.28-27.28-27.28-0.007 0-0.014 0-0.021 0l-546.429-0c-0.009-0-0.019-0-0.030-0-15.111 0-27.36 12.249-27.36 27.36 0 0 0 0 0 0l-0 335.28c24.294 3.815 45.486 14.981 61.74 31.115l-6.98-184.865h491.7v179.71c17.446-15.194 39.845-25.112 64.486-27.064l-9.826-334.166zM830.64 448.93c-6.738 0.018-13.266 0.883-19.495 2.492-7.322 1.786-14.399 4.744-20.851 8.634 12.664-6.036 12.56-5.986 12.445-5.986-14.047 5.36-25.788 14.085-34.629 25.216 10.711-11.157 10.614-11.049 10.57-10.916-7.536 6.248-13.578 14.095-17.658 23.026 11.337-16.986 10.917-16.496 10.477-15.996-1.53 1.63-2.93 3.45-4.27 5.14-0.51 0.67-1 1.34-1.37 1.85-1.37 1.91-2.58 3.89-3.8 5.87-0.35 0.51-0.64 1-1 1.53-6.293 11.174-10 24.531-10 38.753 0 0.009 0 0.019 0 0.028-0-0.001-0-0.001-0-0.001 0-43.998-35.667-79.665-79.665-79.665-43.998 0-79.665 35.667-79.665 79.665 0 0 0 0 0 0-0.504-43.631-35.992-78.807-79.695-78.807-43.703 0-79.191 35.176-79.695 78.76-0.505-43.567-35.979-78.73-79.665-78.73-43.687 0-79.161 35.162-79.665 78.73-0 0.017-0-0.019-0-0.056 0-12.112-2.751-23.581-7.663-33.817-4.502-9.507-10.795-17.978-18.445-24.991 14.438 17.491 14.378 17.391 14.378 17.331-9.386-14.895-23.050-26.347-39.257-32.759 13.876 7.060 13.503 6.874 13.096 6.777-1.559-1.158-4.009-2.458-6.499-3.688-1.087-0.642-2.361-1.101-3.72-1.298-3.65-2.353-11.064-4.51-18.888-5.26 13.988 2.918 13.598 2.788 13.348 2.638-7.792-2.799-16.782-4.417-26.15-4.417-43.967 0-79.61 35.643-79.61 79.61 0 0.003 0 0.005 0 0.008l109.67 117.77h577.4l109.73-117.77c-0.034-44.008-35.717-79.67-79.73-79.67-0.011 0-0.021 0-0.032 0z"  horiz-adv-x="1024" />

    
    <glyph glyph-name="success" unicode="&#58939;" d="M512 896c-282.77 0-512-229.23-512-512s229.23-512 512-512 512 229.23 512 512-229.23 512-512 512zM804.34 542l-354.28-362c-3.11-4.692-7.202-8.491-12.004-11.171 1.472-0.507-7.432-4.554-17.281-4.554-9.849 0-18.753 4.047-25.139 10.57l-176.006 178.696c-6.423 6.573-10.385 15.574-10.385 25.5s3.962 18.927 10.392 25.507c6.382 6.523 15.285 10.572 25.133 10.572 9.848 0 18.751-4.049 25.134-10.573l150.346-152.546 333.8 341c6.392 6.528 15.296 10.576 25.145 10.576s18.753-4.047 25.139-10.57c6.441-6.584 10.412-15.597 10.412-25.536 0-9.94-3.971-18.952-10.413-25.537z"  horiz-adv-x="1024" />

    
    <glyph glyph-name="more" unicode="&#58940;" d="M512 896c-282.77 0-512-229.23-512-512s229.23-512 512-512 512 229.23 512 512-229.23 512-512 512zM327.060 332.63c-28.371 0-51.37 22.999-51.37 51.37 0 28.371 22.999 51.37 51.37 51.37 28.371 0 51.37-22.999 51.37-51.37 0-28.371-22.999-51.37-51.37-51.37zM537.68 339.51c0.242 0.131 0.242 0.131 0.242 0.131 25.447 25.445 15.228 8.919 0.010-0zM696.93 332.63c-28.367 0.006-51.36 23.003-51.36 51.37 0 28.371 22.999 51.37 51.37 51.37 28.371 0 51.37-22.999 51.37-51.37 0-28.371-22.999-51.37-51.37-51.37z"  horiz-adv-x="1024" />

    
    <glyph glyph-name="refueling" unicode="&#58941;" d="M638.38 420.68c0 5.61-0.080 11.75-0.39 18.52-1.55 30.080 16.32 44.66 32.13 50.42-9.4 20.49-45.4 47.48-73.2 63.14v-326.66c0.832 0.213 1.786 0.335 2.769 0.335 0.55 0 1.092-0.038 1.622-0.112 22.329-3.083 39.809-0.383 50.479 7.857 6.461 4.957 10.821 12.375 11.67 20.829l3.27 115.991c-28.080 5.36-28.27 27.83-28.35 49.68zM399.46 331.12h126.52v-37.28h-126.52zM399.46 387.77h126.52v-26.41h-126.52zM359.86 630.68h213.48v-143.57h-213.48zM0 896v-1024h1024v1024h-1024zM711.5 401c0-0.025 0-0.055 0-0.085 0-1.037-0.142-2.041-0.409-2.993-2.261-8.622-8.801-21.612-20.861-26.412l-3.6-119.87c-1.845-15.363-10.024-28.516-21.807-36.958-10.163-8.282-26.363-13.122-46.393-13.122-7.279 0.010-14.42 0.565-21.395 1.624 0.186 0.081-0.497 0.41-1.097 0.845l0.983-49.149h13.38c3.17 0 5.65-1.51 5.65-3.48v-31c0-2-2.51-3.56-5.65-3.56h-292.16c-3.13 0-5.65 1.59-5.65 3.56v31c0 2 2.51 3.48 5.65 3.48h16.090v464.85c0 17.32 10.94 31.4 24.48 31.4h213.75c13.49 0 24.48-14.070 24.48-31.4v-43.62c0.864 0.229 1.856 0.36 2.879 0.36 2.002 0 3.886-0.504 5.533-1.391 8.248-4.529 74.938-41.969 88.328-81.289 2.716-0.762 5.086-1.953 7.162-3.514 9.238-4.256 10.708-23.006 10.668-36.546v-52.73zM685.9 469.36c-0.38-0.124-0.819-0.202-1.273-0.218-3.557-0.392-24.437-3.802-23.167-28.742 0.35-7.19 0.39-13.73 0.42-19.6 0.15-26 0.15-27.070 17.17-27.45l0.46-0.080c0.069-0.009 0.149-0.014 0.23-0.014s0.161 0.005 0.239 0.015c3.781-0.191 6.911 6.499 7.991 9.469v51c0 8.2-0.73 13-1.43 15.62-0.096-0.016-0.207-0.026-0.32-0.026-0.113 0-0.224 0.009-0.332 0.027z"  horiz-adv-x="1024" />

    
    <glyph glyph-name="selection-card" unicode="&#58942;" d="M512 896c-282.77 0-512-229.23-512-512s229.23-512 512-512 512 229.23 512 512-229.23 512-512 512zM302.86 574.49h93.57v53.29h-53.85q-9.29-21.29-18.14-37.14c-16.465 8.981-35.686 15.333-56.084 17.905 65.728 28.6 82.167 75.553 87.061 125.887l4.733-58.362c-10.527-36.218-25.774-67.84-45.367-96.233l81.657 61.663v50.28h15.29v-50.29h75.14v-13.71h-75.15v-53.29h88.86v-13.71h-68.14v-61.71q-0.14-11.86 4.29-16.29 4-4.71 15-4.57h10.27q17.57-1.29 20.14 19 2.71 16.57 3.57 27c12.112-5.938 26.205-10.025 41.072-11.464l-26.492 5.604c-1.634-16.784-4.707-32.124-9.151-46.87q1.001-7.27-24.139-6.41h-22q-27.86 0.14-27.86 31.86v63.85h-44.42q0.14-3.14 0.14-7.43 0-65.86-56.29-93c-8.235 12.052-18.99 21.789-31.556 28.613q51.556 0.817 61.556 18.817 11 17.57 11.29 53h-55v13.71zM254.86 683.35q22.14-21.72 40.57-41.57l-12.57-11.14q-12.14 14.14-40 43zM473.44 113.12q-55.71 30.14-111.29 56.43v-104.14h-16v140.14h16v-33.86l7.43 10.43q60.43-28.43 113.71-55zM501.15 216.12h-270v14.88h115v110.27h16v-43.27h121.14v-14.57h-121.14v-52.43h139v-14.86zM498.58 425.63q-116.29 0.14-154.57 1.43-45.57-0.14-71.86 35.14-26.43-26.57-35.43-37.86l-10.57 12.29q14 15.43 38.86 38.14v101.44h-34.72v15.28h50.29v-116.14q25-35 70-34 26.71-0.57 73.86-0.71 49.85 0 79.71 0.43-4.86-11.29-5.57-15.43zM637.58 662.92h-19.72v13.72h159.86v-15.29q-26.29-38.29-58-58.43 27.86-13.57 75.86-22c-5.168-8.13-8.695-17.794-9.87-28.17q-53.27 25.17-81.41 41.030-31.44-16.86-84.3-31.29c-4.962 13.059-12.16 24.235-21.221 33.596q60.361-7.306 89.931 7.124-29.28 19.85-51.13 59.71zM520.72 435.78q5.71-0.28 10.86-0.43 2.57-0.14 5.29-0.14h6.71q16.57-0.71 15.86 15.86v82.14q-17.57-5-38-11.43l-1.86 17q23.71 5.71 39.86 10v73.14h-38v14.29h38v55.28h15.14v-55.29h36.86v-14.29h-36.86v-69q23.28 6.43 33.43 9.57 0.14-5.14 1.43-14.86-1.29-0.29-4.14-1.14-18.29-4.86-30.71-8.57v-88q1.85-29.28-28-29.57-9.29-0.57-23.43-0.57-0.73 11.3-2.44 16.010zM795.15 241.27h-205v-21.43q0-19.29-0.86-35h140.71v-119.15h-16.42v103.58h-125.58q-3.72-58.15-43.57-102.71c-12.557 11.556-27.859 20.333-44.804 25.239q57.654 15.191 65.514 42.761 8.86 26.86 8.57 84.14v115.3h16.43v-77.14h111.15v83h16.43v-83h77.43v-15.57zM797.58 468.36h-86.58v-50.43h-15.28v50.42h-93v13.71h93v40h-75.14v13.86h75.14v33h15.28v-33h73.14v-13.86h-73.14v-40h86.57v-13.71zM760.72 662.92h-106.86q21.57-34.29 50.43-51.57 29.57 17 56.43 51.57z"  horiz-adv-x="1024" />

    
    <glyph glyph-name="vouchers" unicode="&#58943;" d="M87.39 395.56c0.53 24.64-60.27 50.12-66.31 82.86-16.53 89.57 8 195.25 8 195.25h179.64v-575.19h-187.64v201.060s65.61 63.35 66.3 96zM225.89 670.12h722.81v-572.23h-722.81v572.23zM830.76 683.3l176.12-14.7v-53.37l-46.84-55.24 52.72-75.68-54.020-99.23 56.21-68.56-43.92-116.93 43.92-90.63h-184.19v574.34zM978.65 82.83h-933.29c-25.065 0.063-45.36 20.396-45.36 45.47 0 0 0 0 0 0l-0 167.38c0 15.26 12.8 22.79 25.16 30.060 18.74 11 40 23.48 40 61.6 0 37.22-20.63 49.29-38.84 60-12.32 7.16-26.32 15.34-26.32 31.66v161c0.091 24.944 20.333 45.13 45.29 45.13 0.021 0 0.042-0 0.064-0l933.297 0c0.036 0 0.078 0 0.121 0 24.899 0 45.099-20.119 45.229-44.988l0-27.282c-0.008-5.384-2.83-10.107-7.074-12.777-15.876-9.843-39.296-30.753-39.296-44.443s23.41-34.61 39.24-44.43c4.305-2.709 7.125-7.433 7.13-12.817l-0-57.213c-0.008-5.384-2.83-10.107-7.074-12.777-15.926-9.803-39.296-30.703-39.296-44.403s23.4-34.65 39.22-44.4c4.314-2.706 7.14-7.436 7.14-12.826 0-0.001-0-0.003-0-0.004l0-57.22c-0.009-5.032-2.476-9.486-6.264-12.226-16.196-11.614-40.106-34.954-40.106-48.214 0-12.6 23.18-31.88 38.84-41 4.526-2.646 7.521-7.478 7.53-13.011l-0-27.289c-0.119-24.878-20.314-45-45.21-45-0.049 0-0.099 0-0.148 0zM30.12 293.22v-164.92c-0-0.012-0-0.026-0-0.040 0-8.427 6.809-15.264 15.226-15.31l933.304-0c0.101-0.002 0.22-0.004 0.34-0.004 8.221 0 14.887 6.663 14.89 14.884l0 18.91c-15.73 10.32-46.37 34.080-46.37 62.38s31.35 56.17 46.37 68v41.6c-14.88 10.51-46.37 36.16-46.37 65.28s31.45 54.77 46.37 65.28v41.1c-14.91 10.53-46.37 36.17-46.37 65.29s31.49 54.75 46.37 65.33v19.17c-0.004 8.232-6.678 14.903-14.91 14.903-0.113 0-0.225-0.001-0.337-0.004l-933.273 0c-0.068 0.001-0.149 0.002-0.23 0.002-8.284 0-15-6.716-15-15 0-0.001 0-0.001 0-0.002l-0-161.070c0.66 0.54 6.84-3.060 11.38-5.72 20.1-11.77 53.75-31.46 53.75-85.94 0-55.35-34.33-75.51-54.82-87.58-12.921-7.252-23.724-16.751-32.233-28.074zM195.77 676.63h30.12v-578.74h-30.12v578.74zM518.77 384.55l-127.090 158 23.47 18.88 103.19-128.33 103.47 133.21 23.79-18.47-126.84-163.29zM634.56 296h-239.63v30.090h239.63v-30.090zM634.56 386.35h-239.63v30.090h239.63v-30.12zM508.66 422.2h30.12v-199.76h-30.12v199.76z"  horiz-adv-x="1024" />

    
    <glyph glyph-name="coupon" unicode="&#58944;" d="M978.65 82.83h-933.29c-25.065 0.063-45.36 20.396-45.36 45.47 0 0 0 0 0 0l-0 167.38c0 15.26 12.8 22.79 25.16 30.060 18.74 11 40 23.48 40 61.6 0 37.22-20.63 49.29-38.84 60-12.32 7.16-26.32 15.34-26.32 31.66v161c0.091 24.944 20.333 45.13 45.29 45.13 0.021 0 0.042-0 0.064-0l933.297 0c0.036 0 0.078 0 0.121 0 24.899 0 45.099-20.119 45.229-44.988l0-27.282c-0.008-5.384-2.83-10.107-7.074-12.777-15.876-9.843-39.296-30.753-39.296-44.443s23.41-34.61 39.24-44.43c4.305-2.709 7.125-7.433 7.13-12.817l-0-57.213c-0.008-5.384-2.83-10.107-7.074-12.777-15.926-9.803-39.296-30.703-39.296-44.403s23.4-34.65 39.22-44.4c4.314-2.706 7.14-7.436 7.14-12.826 0-0.001-0-0.003-0-0.004l0-57.22c-0.009-5.032-2.476-9.486-6.264-12.226-16.196-11.614-40.106-34.954-40.106-48.214 0-12.6 23.18-31.88 38.84-41 4.526-2.646 7.521-7.478 7.53-13.011l-0-27.289c-0.119-24.878-20.314-45-45.21-45-0.049 0-0.099 0-0.148 0zM30.12 293.22v-164.92c-0-0.012-0-0.026-0-0.040 0-8.427 6.809-15.264 15.226-15.31l933.304-0c0.101-0.002 0.22-0.004 0.34-0.004 8.221 0 14.887 6.663 14.89 14.884l0 18.91c-15.73 10.32-46.37 34.080-46.37 62.38s31.35 56.17 46.37 68v41.6c-14.88 10.51-46.37 36.16-46.37 65.28s31.45 54.77 46.37 65.28v41.1c-14.91 10.53-46.37 36.17-46.37 65.29s31.49 54.75 46.37 65.33v19.17c-0.004 8.232-6.678 14.903-14.91 14.903-0.113 0-0.225-0.001-0.337-0.004l-933.273 0c-0.068 0.001-0.149 0.002-0.23 0.002-8.284 0-15-6.716-15-15 0-0.001 0-0.001 0-0.002l-0-161.070c0.66 0.54 6.84-3.060 11.38-5.72 20.1-11.77 53.75-31.46 53.75-85.94 0-55.35-34.33-75.51-54.82-87.58-12.921-7.252-23.724-16.751-32.233-28.074zM206.29 481.66v40.96h235.66v-40.96h-235.66zM206.29 368.95v30.11h471.33v-30.11h-471.33zM206.29 232.060v30.12h644.5v-30.12h-644.5z"  horiz-adv-x="1024" />

    
    <glyph glyph-name="recommended-reward-record" unicode="&#58945;" d="M546.54 482.16l-39.99 69.070-29.090-72.71-76.34-18.17 58.17-50.9-7.28-79.98 69.080 43.62 72.71-32.72-18.18 76.35 50.9 58.17-79.98 7.27zM512 896c-282.77 0-512-229.23-512-512s229.23-512 512-512 512 229.23 512 512-229.23 512-512 512zM652 249.49l-7.3-101.8-94.52 112.7c-14.54-3.64-25.45-3.64-36.35-3.64s-21.81 0-36.35 3.64l-94.52-112.7-10.96 101.8-101.79-7.27 87.28 101.78c-14.54 29.090-25.49 58.18-25.49 94.53 0 101.79 80 181.78 181.78 181.78s181.77-80 181.77-181.78c0-36.35-10.91-65.44-25.45-94.52l83.62-101.79z"  horiz-adv-x="1024" />

    
    <glyph glyph-name="recommended-awards" unicode="&#58946;" d="M546.54 482.16l-39.99 69.070-29.090-72.71-76.34-18.17 58.17-50.9-7.28-79.98 69.080 43.62 72.71-32.72-18.18 76.35 50.9 58.17-79.98 7.27zM945.23 896h-866.46c-43.503 0-78.77-35.267-78.77-78.77v-866.46c0-43.503 35.267-78.77 78.77-78.77h866.46c43.503 0 78.77 35.267 78.77 78.77v866.46c0 43.503-35.267 78.77-78.77 78.77zM652 249.49l-7.3-101.8-94.52 112.7c-14.54-3.64-25.45-3.64-36.35-3.64s-21.81 0-36.35 3.64l-94.52-112.7-10.96 101.8-101.79-7.27 87.28 101.78c-14.54 29.090-25.49 58.18-25.49 94.53 0 101.79 80 181.78 181.78 181.78s181.77-80 181.77-181.78c0-36.35-10.91-65.44-25.45-94.52l83.62-101.79z"  horiz-adv-x="1024" />

    
    <glyph glyph-name="recharge-record" unicode="&#58947;" d="M945.23 896h-866.46c-43.503 0-78.77-35.267-78.77-78.77v-866.46c0-43.503 35.267-78.77 78.77-78.77h866.46c43.503 0 78.77 35.267 78.77 78.77v866.46c0 43.503-35.267 78.77-78.77 78.77zM563.87 227.23c0-43.95-64.5-79.54-144.090-79.54s-144.090 35.59-144.090 79.54v31.34c0.36-43.77 64.7-79.18 144.050-79.18 79.59 0 144.090 35.59 144.090 79.54v-31.7zM563.87 282.56c0-43.95-64.5-79.54-144.090-79.54s-144.090 35.59-144.090 79.54v31.34c0.36-43.77 64.7-79.18 144.050-79.18 79.59 0 144.090 35.59 144.090 79.54v-31.7zM419.78 258.35c-79.59 0-144.090 35.59-144.090 79.54s64.5 79.54 144.090 79.54 144.090-35.59 144.090-79.54-64.5-79.54-144.090-79.54zM460.13 485.44v31.34c0.36-43.77 64.7-79.18 144.050-79.18 79.59 0 144.090 35.59 144.090 79.54v-31.7c0-43.95-64.5-79.54-144.090-79.54-0.197-0.001-0.43-0.001-0.664-0.001-21.115 0-41.606 2.666-61.157 7.681-13.069 9.14-30.789 16.81-50.729 22.25-19.63 13.62-31.5 30.84-31.5 49.61zM748.31 319.44c0-43.95-64.5-79.54-144.090-79.54-4.29 0-8.5 0.14-12.68 0.36v18.67c0 0.001 0 0.003 0 0.004 0 3.184-0.535 6.242-1.519 9.091 0.329 1.174 0.279 2.594 0.469 3.964 4.52-0.23 9.1-0.38 13.73-0.38 79.59 0 144.090 35.59 144.090 79.54v-31.7zM748.31 374.77c0-43.95-64.5-79.54-144.090-79.54-4.29 0-8.5 0.14-12.68 0.36v18.67c-0.001 3.188-0.536 6.25-1.521 9.103 0.331 1.167 0.281 2.587 0.471 3.957 4.52-0.23 9.1-0.38 13.73-0.38 79.59 0 144.090 35.59 144.090 79.54v-31.7zM748.31 430.1c0-43.95-64.5-79.54-144.090-79.54-4.7 0-9.35 0.14-13.94 0.4-2.983 15.477-10.060 28.961-20.052 39.695 14.172-7.832 23.997-8.395 33.953-8.395 0.014 0 0.027 0 0.041 0 79.588-0 144.088 35.59 144.088 79.54v-31.7zM604.22 461.23c-79.59 0-144.090 35.59-144.090 79.54s64.5 79.54 144.090 79.54 144.090-35.59 144.090-79.54-64.5-79.54-144.090-79.54z"  horiz-adv-x="1024" />

    
    <glyph glyph-name="phone" unicode="&#58948;" d="M443.070 177.23h137.85v-34.46h-137.85zM374.15 625.23h275.7v-413.54h-275.7zM945.23 896h-866.46c-43.503 0-78.77-35.267-78.77-78.77v-866.46c0-43.503 35.267-78.77 78.77-78.77h866.46c43.503 0 78.77 35.267 78.77 78.77v866.46c0 43.503-35.267 78.77-78.77 78.77zM684.31 142.77c-0.062-19.007-15.454-34.398-34.454-34.46l-275.706-0c-19.007 0.062-34.398 15.454-34.46 34.454l-0 482.466c0.062 19.007 15.454 34.398 34.454 34.46l275.706 0c19.007-0.062 34.398-15.454 34.46-34.454l0-482.466z"  horiz-adv-x="1024" />

    
    <glyph glyph-name="transfer-record" unicode="&#58949;" d="M945.23 896h-866.46c-43.503 0-78.77-35.267-78.77-78.77v-866.46c0-43.503 35.267-78.77 78.77-78.77h866.46c43.503 0 78.77 35.267 78.77 78.77v866.46c0 43.503-35.267 78.77-78.77 78.77zM278.71 418.72c16.83 113.98 114.62 201.59 233.29 201.59 82.35 0 154.69-42.22 196.92-106.13v40.49c0 7.251 5.879 13.13 13.13 13.13 7.251 0 13.13-5.879 13.13-13.13v-76.67l-0.17-0.070c0.106-0.7 0.167-1.507 0.167-2.329 0-9.041-7.329-16.37-16.37-16.37-5.468 0-10.311 2.681-13.283 6.801l-0.323-0.072c-0.28 0.67-0.58 1.33-0.87 2-0.982 1.743-1.667 3.785-1.926 5.957-31.974 69.213-105.154 120.153-190.444 120.153-104.92 0-191.63-77-207.28-177.55-0.070-1.066-0.258-2.060-0.551-3.008 0.151 0.368 0.081-0.052 0.021-0.462h-0.17c-1.785-5.19-6.625-8.852-12.321-8.852-7.18 0-13 5.82-13 13 0 0.043 0 0.086 0.001 0.129-0 0-0 0.008-0 0.016 0 0.478 0.025 0.95 0.075 1.415zM577.64 410.25c0 0 0 0 0 0 7.251 0 13.13-5.879 13.13-13.13 0-7.251-5.879-13.13-13.13-13.13-0 0-0 0-0 0h-52.51v-39.38h52.51c0 0 0 0 0 0 7.251 0 13.13-5.879 13.13-13.13 0-7.251-5.879-13.13-13.13-13.13-0 0-0 0-0 0h-52.51v-52.51c-0-7.251-5.879-13.13-13.13-13.13-7.251 0-13.13 5.879-13.13 13.13v52.52h-52.51c-0 0-0 0-0 0-7.251 0-13.13 5.879-13.13 13.13 0 7.251 5.879 13.13 13.13 13.13 0 0 0 0 0 0h52.51v39.38h-52.51c-0 0-0 0-0 0-7.251 0-13.13 5.879-13.13 13.13 0 7.251 5.879 13.13 13.13 13.13 0 0 0 0 0 0h46.29l-56 56c-2.373 2.376-3.841 5.656-3.841 9.28 0 7.252 5.879 13.131 13.131 13.131 3.629 0 6.913-1.472 9.29-3.851l56.35-56.36 56.73 56.74c2.438 2.734 5.971 4.448 9.904 4.448 7.318 0 13.25-5.932 13.25-13.25 0-3.94-1.72-7.479-4.45-9.906l-56.243-56.242h46.87zM747 365.4c-9.54-121.75-110.84-217.7-235-217.7-91.56 0-170.84 52.13-210.050 128.28v-49.51c0-0 0-0 0-0 0-7.251-5.879-13.13-13.13-13.13-7.251 0-13.13 5.879-13.13 13.13 0 0 0 0 0 0v78.76c0.005 1.083 0.14 2.132 0.39 3.136-0.254 0.963-0.382 2.226-0.382 3.519 0 10.587 8.583 19.17 19.17 19.17 9.693 0 17.706-7.194 18.99-16.535l0.131-0.1c28.73-81.76 106.42-140.5 198-140.5 112.18 0 203.55 88 209.49 198.72l1 0.13c0.873 6.357 6.269 11.201 12.796 11.201 5.237 0 9.746-3.118 11.771-7.6l0.913 0.039c0-0.87-0.18-1.75-0.22-2.61 0.382-1.112 0.612-2.394 0.633-3.726-0.092-1.339-0.623-3.267-1.522-4.971z"  horiz-adv-x="1024" />

    
    <glyph glyph-name="expenses-record" unicode="&#58950;" d="M524.73 353.47l0.33-0.33v0.37l-0.33-0.040zM495.13 353.64h-0.45l0.45-0.45v0.45zM495.13 353.19v-3.25l3.7 3.7h-3.23l0.64-1.55-1.11 1.1zM525.060 353.69v-0.18l1.78 0.18h-1.78zM583.85 555.69l12-0.060-6.18 25.45c-1.317 1.412-2.335 3.122-2.938 5.017 0.393-2.723-1.527-2.075-3.599-2.075-0.226 0-0.451-0.008-0.673-0.023l-21.020 0.002c-12.345 0.095-22.687 8.56-25.637 19.995-1.133 4.515-4.723 18.045-6.773 25.935-0.33 0.66-3.37 2.54-5.8 2.54h-22.46c-2.254-0.241-4.244-1.222-5.755-2.692-0.205-1.838-1.195-5.808-2.685-11.628l-0.11-0.39c-0.55-2.1-2.32-9.22-2.59-10.43l-0.72-2.93c-3-12.31-13.58-20.37-26.61-20.37l-8.78 0.060h-15.14c-3.712-2.299-6.76-5.326-9.014-8.903 4.484 2.603 3.874 0.013-0.156-16.057l-0.83-3.37c11.22 0.040 70.56 0.040 155.47-0.070zM495.13 354.74v-1.1h0.47l-0.47 1.1zM528.6 352.040l1.64 1.65h-1.8l0.16-1.65zM945.23 896h-866.46c-43.503 0-78.77-35.267-78.77-78.77v-866.46c0-43.503 35.267-78.77 78.77-78.77h866.46c43.503 0 78.77 35.267 78.77 78.77v866.46c0 43.503-35.267 78.77-78.77 78.77zM394.72 562.31l1.21 5c2.71 10.77 4.53 18.11 5.58 22.58 3.42 14.3 20.59 28.27 36.6 28.27l18.89 0.060c2.32 9.33 4.36 17.5 5.41 21.36 4.090 14.52 20.59 27.050 38.2 27.050h22.58c18-0.060 34.67-12.7 38.48-27.27 2.26-8.34 4.25-15.84 5.63-21.2l3.48 0.060h11.48c21.14 0 36.82-13.080 40.47-28.27l6.74-27.66c0.659-2.433 1.038-5.225 1.038-8.107 0-7.541-2.594-14.475-6.939-19.96-6.103-7.68-15.485-12.634-26.027-12.747l-13.762 0.003c-82.48 0.11-150.27 0.17-156 0l-0.94-0.060c-10.77 0.167-20.311 5.286-26.466 13.175-4.157 5.262-6.714 12.114-6.714 19.563 0 2.898 0.387 5.706 1.112 8.375zM602.51 353.69c0.046 0 0.101 0.001 0.156 0.001 4.821 0 9.183-1.961 12.333-5.13 3.034-3.029 4.911-7.216 4.911-11.841 0-4.625-1.877-8.811-4.91-11.84-3.166-3.17-7.542-5.131-12.375-5.131-0.037 0-0.074 0-0.111 0l-73.514-0v-34.28h73.48c0.037 0 0.081 0 0.125 0 4.844 0 9.227-1.969 12.394-5.15 3.016-3.026 4.881-7.201 4.881-11.811 0-4.61-1.865-8.784-4.881-11.81-3.165-3.169-7.541-5.13-12.374-5.13-0.037 0-0.074 0-0.111 0l-73.514-0v-50.84c0.032-0.39 0.050-0.844 0.050-1.303 0-9.389-7.611-17-17-17-9.389 0-17 7.611-17 17 0 0.459 0.018 0.913 0.054 1.362l-0.004 50.771h-73.44c-0.060-0.001-0.131-0.001-0.202-0.001-9.41 0-17.054 7.561-17.188 16.939-0 0.022-0 0.034-0 0.045 0 4.605 1.878 8.772 4.909 11.776 3.167 3.171 7.543 5.132 12.376 5.132 0.037 0 0.074-0 0.111-0l73.474 0v34.29h-73.48c-0.060-0.001-0.131-0.001-0.202-0.001-9.41 0-17.054 7.561-17.188 16.939-0 0.022-0 0.034-0 0.045 0 4.605 1.878 8.772 4.909 11.776 3.167 3.171 7.543 5.132 12.376 5.132 0.037 0 0.074-0 0.111-0l72.994 0-85.23 84.58c-3.204 3.153-5.19 7.537-5.19 12.384 0 0.013 0 0.025 0 0.038-0 0.008-0 0.021-0 0.033 0 4.614 1.856 8.795 4.862 11.837 2.984 3.001 7.117 4.859 11.685 4.859 0.043 0 0.087-0 0.13-0.001 4.855-0.006 9.251-1.993 12.42-5.196l78.714-78.664 78.67 78.72c3.173 3.205 7.574 5.19 12.438 5.19 0.015 0 0.029-0 0.044-0 0.047 0.001 0.104 0.001 0.162 0.001 4.55 0 8.666-1.855 11.634-4.85 3.011-3.093 4.867-7.32 4.867-11.981 0-4.825-1.989-9.186-5.192-12.306l-84.474-84.584h72.27zM748.31 157.88c0-2-0.11-3.86-0.28-5.69-0.283-3.152-0.863-6.049-1.72-8.825 0.61 1.815 0.17 0.155-0.38-1.885q-0.83-2.82-1.82-5.3c-0.55-1.38-1.27-2.93-2.15-4.8-3.187-6.177-7.393-11.385-12.453-15.605 6.374 5.46 2.076 0.991-2.993-2.424 5.148 3.133-0.526-1.594-7.029-4.935 8.499 4.748 2.749 0.739-3.717-1.868 7.59 3.136 0.844-0.677-6.587-2.906 10.696 4.096 4.946 1.484-1.285 0.18 10.804 3.748 9.204 2.918 7.544 2.148-4.629-2.154-10.007-3.623-15.665-4.114 7.145 0.936 3.298 0.177-0.701 0.007 3.198 0.070-0.086-0.331-3.456-0.378 2.427 0.015 0.629-0.106-1.196-0.106-0.12 0-0.24 0.001-0.36 0.002l-363.882-0c-0.081-0-0.176-0.001-0.272-0.001-1.966 0-3.904 0.12-5.806 0.354-1.262 0.147-3.032 0.417-4.902 0.807-2.15 0.5-3.92 1-5.52 1.49-5.779 1.881-10.797 4.538-15.247 7.906 4.671-3.519-0.004-0.179-3.895 3.913 7.821-6.58 6.261-5.59 4.841-4.59-5.361 3.764-9.74 8.556-12.925 14.118 7.465-9.748 6.195-8.488 4.925-7.158-4.6 4.692-8.18 10.403-10.368 16.761 5.888-11.491 4.888-10.111 3.798-8.451-0.83 1.32-1.66 2.76-2.65 4.64-0.72 1.44-1.38 2.82-2.21 4.75s-1.38 3.75-1.88 5.47c-1.223 3.9-2.006 8.402-2.173 13.061 0.285-4.91-0.058-1.747-0.093 1.49 0.006-1.791-0.104 0.079-0.104 1.909v385.92c0 1.88 0.11 3.75 0.28 5.69 0.17 1.77 0.44 3.59 0.77 5.47 0.992 5.014 2.531 9.467 4.59 13.615-1.815-3.146 0.232 1.181 2.876 5.070-1.79-1.805 1.722 3.654 6.059 8.337-7.076-9.493-6.246-8.063-5.356-6.683s2 2.93 3 4.31 2.21 2.71 3.37 3.92c1.55 1.6 2.76 2.71 3.92 3.75 4.84 4.307 10.676 7.609 17.111 9.515-11.651-5.315-10.151-4.375-8.661-3.495 4.39 2.647 9.548 4.526 15.060 5.306-5.253-0.579 0.433 0.958 6.409 1.482-7.818-1.078-3.497-0.239 0.992-0.046-4.247-0.219-0.837 0.192 2.66 0.242-2.461-0.084-0.591 0.026 1.239 0.026h34c0 0 0 0 0 0 9.452 0 17.115-7.663 17.115-17.115 0-9.452-7.663-17.115-17.115-17.115-0 0-0 0-0 0h-34c-0.72 0-1.38-0.060-2-0.11-1.085-0.119-2.076-0.355-3.015-0.696-0.757-0.092-2.477-0.774-4.062-1.67 1.492 0.881-0.098 0.013-1.494-1.091 2.502 1.636 2.002 1.356 1.452 1.086-0.66-0.39-1.21-0.77-1.71-1.1-0.66-0.44-1.1-0.83-1.6-1.21-1.627-1.337-2.916-3.026-3.758-4.955 0.462 1.617-0.846-0.556-1.621-2.968 1.459 3.393 1.459 3.393 1.299 3.113-0.28-0.44-0.44-0.72-0.88-1.55s-0.83-1.71-1.1-2.32c-0.637-1.601-1.061-3.455-1.183-5.391 0.054 1.879-0.279-0.006-0.352-1.957 0.153 2.296 0.022 1.189 0.011 0.053-0.074 0.117-0.136-0.77-0.137-1.672l0-385.793c0-0.77 0.060-1.55 0.11-2.37 0.101-1.253 0.319-2.41 0.646-3.521-0.146 0.381 0.014-0.229 0.184-0.839 0.61-2.308 1.506-4.333 2.669-6.171-1.559 3.031-1.289 2.471-1.009 1.911 0.534-1.241 1.316-2.286 2.289-3.111-0.255-0.347 1.188-1.827 2.896-2.932-2.475 2.003-2.035 1.453-1.655 1.063 0.66-0.66 1-1 1.55-1.49 1.474-1.34 3.263-2.36 5.242-2.936-3.082 1.286-2.592 1.006-2.032 0.726 1.558-0.967 3.392-1.655 5.356-1.943-2.088 0.338-0.406-0.115 1.362-0.266-1.566 0.036 0.437-0.374 2.52-0.479-3.108 0.419-2.508 0.309-1.898 0.249s1.16-0.11 2-0.11h363.83c0.116-0.006 0.253-0.009 0.39-0.009 0.505 0 1 0.043 1.482 0.126 1.050 0.082 2.068 0.285 3.041 0.594 0.403 0.025 1.639 0.5 2.771 1.136-0.598-0.489 0.616 0.145 1.677 0.965-1.241-0.882-0.691-0.602-0.191-0.332 1.98 1.109 3.632 2.571 4.923 4.317-1.35-1.94 0.172-0.306 1.283 1.598-1.139-2 0.294-0.016 1.236 2.225-1.043-2.692 0.321-0.538 1.148 1.865-1.037-2.781 0.035-0.608 0.612 1.759-1.523-4.095-1.193-3.485-0.863-2.925s0.61 1.27 0.88 1.88c0.33 0.88 0.55 1.49 0.77 2.26 0.418 1.255 0.685 2.703 0.74 4.205-0.070-1.375 0.040-0.605 0.15 0.275 0.060 0.66 0.11 1.44 0.11 2.32v385.91c0 0.94-0.060 1.66-0.11 2.32s-0.22 1.6-0.33 2.43-0.33 1.49-0.5 2.15c-0.72 2.326-1.739 4.352-3.037 6.165 2.037-3.505 1.927-3.285 1.317-2.015-0.22 0.44-0.55 1-0.94 1.6-0.55 0.88-0.88 1.32-1.21 1.77-0.5 0.66-0.77 0.94-1 1.27-2.369 2.558-5.273 4.585-8.537 5.906 4.714-2.389 2.308-1.049-0.339-0.274 3.595-1.246 1.323-0.206-1.141 0.315 4.437-1.586 3.827-1.306 3.277-1.036s-1.27 0.5-1.88 0.72-1.21 0.33-1.77 0.5c-1.112 0.33-2.395 0.537-3.72 0.573 1.17-0.103 0.51-0.053-0.17-0.053h-34c-0 0-0 0-0 0-9.452 0-17.115 7.663-17.115 17.115 0 9.452 7.663 17.115 17.115 17.115 0 0 0 0 0 0h34c1.93 0 3.75-0.11 5.58-0.28s3.7-0.5 5.58-0.88c1.6-0.33 3.31-0.83 5.13-1.38s3.53-1.27 5.19-2c5.995-2.669 11.105-6.269 15.391-10.673-8.821 7.243-7.391 6.313-6.121 5.373s2.65-2 4.14-3.26c5.699-4.885 10.259-10.927 13.341-17.777-8.341 12.867-7.241 11.597-6.081 10.157 5.796-7.508 10.053-16.51 12.123-26.318-3.647 12.182-1.855 6.451-1.176 0.383-1.018 7.547 0.2 2.714 0.574-2.353-1.082 7.137-0.632 5.317-0.312 3.547 0.33-1.93 0.61-3.64 0.77-5.35s0.28-3.75 0.28-5.74v-385.91zM528.42 353.86l-1.58-0.17h1.6l-0.020 0.17zM525.060 353.14v-3.15l3.69 0.39-0.15 1.66-1.22-1.22-2.32 2.32z"  horiz-adv-x="1024" />

    
    <glyph glyph-name="cha" unicode="&#58968;" d="M512-128C229.248-128 0 101.24288 0 384 0 666.77248 229.248 896 512 896c282.77248 0 512.02048-229.22752 512.02048-512 0-282.75712-229.248-512-512.02048-512m211.2 662.84544a42.61888 42.61888 0 0 1 0 60.32896 42.60864 42.60864 0 0 1-60.32896 0l-150.85056-150.84544-150.84544 150.85056a42.61888 42.61888 0 0 1-60.33408 0 42.61888 42.61888 0 0 1 0-60.32896L451.69152 384l-150.85056-150.85056a42.61376 42.61376 0 0 1 0-60.32384 42.60864 42.60864 0 0 1 60.33408 0l150.84544 150.84544 150.85056-150.84544a42.5984 42.5984 0 0 1 60.32896 0 42.61376 42.61376 0 0 1 0 60.32384L572.35456 384l150.84544 150.84544z"  horiz-adv-x="1024" />

    
    <glyph glyph-name="icon-test" unicode="&#58909;" d="M514.6756136304155 10.234299205163325c-215.83288139718124 0-392.4234204977546 176.59053910057338-392.4234180294308 392.4234204977546s176.59053910057338 392.4234204977546 392.4234180294308 392.4234180294308 392.4234204977546-176.59053910057338 392.4234204977546-392.4234180294308-176.59053910057338-392.4234204977546-392.4234204977546-392.4234204977546z m0 749.1719818939055c-196.2117090147154 0-356.7485638644748-160.5368523814355-356.7485613961508-356.7485613961508s160.5368523814355-356.7485638644748 356.7485613961508-356.7485638644748 356.7485638644748 160.5368523814355 356.7485638644748 356.7485638644748-160.5368523814355 356.7485638644748-356.7485638644748 356.7485613961508zM514.6756136304155 10.234299205163325c-215.83288139718124 0-392.4234204977546 176.59053910057338-392.4234180294308 392.4234204977546s176.59053910057338 392.4234204977546 392.4234180294308 392.4234180294308 392.4234204977546-176.59053910057338 392.4234204977546-392.4234180294308c0-65.99848353740583-16.05368425081404-130.2132254773096-48.1610576890897-187.29299609055738-5.351227260830082-8.918712924158065-16.05368425081404-12.48619858748605-24.9723971749721-7.13497132665597-8.918712924158065 5.351227260830082-12.48619858748605 16.05368425081404-7.13497132665597 24.9723996432959 28.53988530662388 51.72854088409389 42.809827959935824 110.59205556316758 42.80982549161203 169.4555677739174 0 196.2117090147154-160.5368523814355 356.7485638644748-356.7485613961508 356.7485613961508s-356.7485638644748-160.5368523814355-356.7485638644748-356.7485613961508 160.5368523814355-356.7485638644748 356.7485638644748-356.7485638644748c58.86351221074986 0 117.72702688982353 14.26994265331194 169.4555677739174 42.809827959935824 8.918712924158065 5.351227260830082 19.62116991414203 1.7837415975020943 24.9723996432959-7.13497132665597 5.351227260830082-8.918712924158065 1.7837415975020943-19.62116991414203-7.13497132665597-24.9723996432959C644.8888391077244 26.28798592430178 580.6740971678208 10.234299205163325 514.6756136304155 10.234299205163325zM236.4117343591558 515.0335168635878h-3.567485663327985c-3.567485663327985 3.567485663327985-5.351227260830082 8.918712924158065-3.567485663327985 12.48619858748605 32.10737096995187 71.34971326655973 89.18714158319963 128.4294838798075 160.53685484975935 160.53685484975935 5.351227260830082 1.7837415975020943 8.918712924158065 0 12.48619858748605-5.351229729153876 1.7837415975020943-5.351227260830082 0-8.918712924158065-5.351227260830082-12.48619858748605-67.78222760323175-30.323626904125984-121.2945125531515-83.83591185404576-151.61813945727744-151.61813945727744-1.7837415975020943-1.7837415975020943-5.351227260830082-3.567485663327985-8.918715392481861-3.567485663327985zM514.6756136304155 170.77115405492327c-10.702456989983956 0-17.837428316639933 7.13497132665597-17.837428316639933 17.837428316639933V438.33257633619826c0 10.702456989983956 7.13497132665597 17.837428316639933 17.837428316639933 17.837428316639933s17.837428316639933-7.13497132665597 17.837428316639933-17.837428316639933v-249.72399396463524c0-10.702456989983956-7.13497132665597-17.837428316639933-17.837428316639933-17.837428316639933zM514.6756136304155 420.4951480195582c-5.351227260830082 0-8.918712924158065 1.7837415975020943-12.48619858748605 5.351227260830082l-124.8619982164795 124.8619982164795c-7.13497132665597 7.13497132665597-7.13497132665597 17.837428316639933 0 24.9723996432959 7.13497132665597 7.13497132665597 17.837428316639933 7.13497132665597 24.9723996432959 0l124.8619982164795-124.8619982164795c7.13497132665597-7.13497132665597 7.13497132665597-17.837428316639933 0-24.9723996432959-3.567485663327985-3.567485663327985-7.13497132665597-5.351227260830082-12.486201055809852-5.351227260830082zM586.0253268969745 491.8448588177942c-5.351227260830082 0-8.918712924158065 1.7837415975020943-12.48619858748605 5.351229729153876-7.13497132665597 7.13497132665597-7.13497132665597 17.837428316639933 0 24.9723996432959l53.51228248159601 53.512284949919774c7.13497132665597 7.13497132665597 17.837428316639933 7.13497132665597 24.9723996432959 0 7.13497132665597-7.13497132665597 7.13497132665597-17.837428316639933 0-24.9723996432959l-53.512284949919774-53.512284949919774c-3.567485663327985-3.567485663327985-7.13497132665597-5.351227260830082-12.48619858748605-5.351229729153876zM639.5376118468945 420.4951480195582H389.81361788225934c-10.702456989983956 0-17.837428316639933 7.13497132665597-17.837428316639933 17.837428316639933s7.13497132665597 17.837428316639933 17.837428316639933 17.837428316639933h249.72399396463524c10.702456989983956 0 17.837428316639933-7.13497132665597 17.837428316639933-17.837428316639933s-7.13497132665597-17.837428316639933-17.837428316639933-17.837428316639933zM639.5376118468945 277.7957214864389H389.81361788225934c-10.702456989983956 0-17.837428316639933 7.13497132665597-17.837428316639933 17.837428316639933s7.13497132665597 17.837428316639933 17.837428316639933 17.837428316639933h249.72399396463524c10.702456989983956 0 17.837428316639933-7.13497132665597 17.837428316639933-17.837428316639933s-7.13497132665597-17.837428316639933-17.837428316639933-17.837428316639933z"  horiz-adv-x="1024" />

    
    <glyph glyph-name="weibiaoti--" unicode="&#58951;" d="M508.79 19.76h82.44a28.42 28.42 0 1 1 0 56.84h-82.44a28.42 28.42 0 1 1 0-56.84zM998.61 602.51L730.52 870.6a86.87 86.87 0 0 1-122.76 0L161.88 424.32H86.69A86.8 86.8 0 0 1 0 337.64v-379A86.8 86.8 0 0 1 86.69-128h613.59A86.8 86.8 0 0 1 787-41.32V268.3l211.41 211.45a86.69 86.69 0 0 1 0.2 122.76zM648.07 830.29a29.93 29.93 0 0 0 42.33 0l46.36-46.36-359.4-359.62H242.1l406 406z m82.24-871.81a29.77 29.77 0 0 0-29.83-29.83H86.69a29.77 29.77 0 0 0-29.83 29.83v256.6h673.46v-256.6z m0 313.45H56.86v65.71a29.77 29.77 0 0 0 29.83 29.83h613.59a29.77 29.77 0 0 0 29.83-29.83v-65.71h0.2zM958.5 519.86L786.56 347.92c-5.24 42.93-41.73 76.4-86.07 76.4H458l319.08 319.29L958.5 562.19a30.3 30.3 0 0 0 0-42.33z"  horiz-adv-x="1024" />

    
    <glyph glyph-name="weibiaoti--1" unicode="&#58952;" d="M512 74.69a52.18 52.18 0 1 1 52.18-52.18A52.23 52.23 0 0 1 512 74.69zM770.15 896h-516.3a78.86 78.86 0 0 1-78.77-78.77v-866.46a78.86 78.86 0 0 1 78.77-78.77h516.3a78.86 78.86 0 0 1 78.77 78.77V817.23A78.86 78.86 0 0 1 770.15 896z m-516.3-52.51h516.3a26.29 26.29 0 0 0 26.26-26.26v-649.15H227.6V817.23a26.29 26.29 0 0 0 26.26 26.26z m516.3-919h-516.3a26.29 26.29 0 0 0-26.26 26.26V111.07h568.82v-160.3a26.28 26.28 0 0 0-26.26-26.26z"  horiz-adv-x="1024" />

    
    <glyph glyph-name="weibiaoti--2" unicode="&#58953;" d="M551.728448 828.142651v34.998633c0 18.17929-16.539354 32.858716-36.998555 32.858716s-36.998555-14.709425-36.998554-32.858716v-34.858639C234.610836 811.603297 46.578181 627.480489 10.149604 390.459748H10.019609v-69.607281h464.801843v-300.728253c0-40.868404-24.259052-74.077106-65.137455-74.077106a74.157103 74.157103 0 0 0-74.077107 74.077106h-73.997109A148.124214 148.124214 0 0 1 409.683997-128c77.086989 0 127.085036 58.907699 133.994766 134.234756a35.168626 35.168626 0 0 1 0.679973 6.939729V320.852467h469.50166v69.607281h0.119995C977.701809 626.760517 793.688997 810.573337 551.728448 828.142651zM76.177024 390.459748C113.685559 597.971642 295.238467 755.345494 513.499941 755.345494S913.364322 597.971642 950.832858 390.459748H76.177024z"  horiz-adv-x="1024" />

    
    <glyph glyph-name="weibiaoti--3" unicode="&#58954;" d="M512-92C250.2-92 36 122.2 36 384S250.2 860 512 860s476-214.2 476-476-214.2-476-476-476z m0 918C268.9 826 70 627.1 70 384s198.9-442 442-442 442 198.9 442 442S755.1 826 512 826zM903 384c0 10.2 6.8 17 17 17h51a17 17 0 0 0 17-17c0-8.5-8.5-17-17-17h-51a17 17 0 0 0-17 17z m-867 0c0 10.2 6.8 17 17 17h51a17 17 0 1 0 0-34H53c-8.5 0-17 8.5-17 17z m814.3-195.5c5.1 8.5 15.3 10.2 23.8 6.8l44.2-25.5c8.5-5.1 10.2-15.3 6.8-23.8-5.1-8.5-15.3-10.2-23.8-6.8l-44.2 25.5c-8.5 5.1-11.9 15.3-6.8 23.8zM100.6 622c5.1 8.5 15.3 10.2 23.8 6.8l44.2-25.5c8.5-5.1 10.2-15.3 6.8-23.8-5.1-8.5-15.3-10.2-23.8-6.8l-44.2 25.5c-10.2 5.1-11.9 15.3-6.8 23.8z m606.9-576.3c8.5 5.1 18.7 1.7 23.8-6.8l25.5-44.2c5.1-8.5 1.7-18.7-6.8-23.8s-18.7-1.7-23.8 6.8l-25.5 44.2c-3.4 8.5-1.7 18.7 6.8 23.8zM274 795.4c8.5 5.1 18.7 1.7 23.8-6.8l25.5-44.2c5.1-8.5 1.7-18.7-6.8-23.8s-18.7-1.7-23.8 6.8l-25.5 44.2c-3.4 10.2-1.7 20.4 6.8 23.8zM512-7c10.2 0 17-6.8 17-17v-51c0-8.5-8.5-17-17-17s-17 8.5-17 17v51c0 10.2 6.8 17 17 17z m0 867c10.2 0 17-6.8 17-17v-51a17 17 0 1 0-34 0V843a17 17 0 0 0 17 17zM316.5 45.7c8.5-5.1 10.2-15.3 6.8-23.8l-25.5-44.2c-5.1-8.5-15.3-10.2-23.8-6.8-8.5 5.1-10.2 15.3-6.8 23.8l25.5 44.2c5.1 8.5 15.3 11.9 23.8 6.8zM750 795.4c8.5-5.1 10.2-15.3 6.8-23.8l-25.5-44.2c-5.1-8.5-15.3-10.2-23.8-6.8-8.5 5.1-10.2 15.3-6.8 23.8l25.5 44.2c5.1 10.2 15.3 11.9 23.8 6.8zM173.7 188.5c5.1-8.5 1.7-18.7-6.8-23.8l-44.2-25.5c-8.5-3.4-18.7-1.7-22.1 6.8-5.1 8.5-1.7 18.7 6.8 23.8l44.2 25.5a17.19 17.19 0 0 0 22.1-6.8zM923.4 622c5.1-8.5 1.7-18.7-6.8-23.8l-44.2-25.5c-8.5-5.1-18.7-1.7-23.8 6.8s-1.7 18.7 6.8 23.8l44.2 25.5c10.2 3.4 20.4 1.7 23.8-6.8zM513.7 180h-13.6c-112.2 6.8-197.2 105.4-190.4 217.6 3.4 54.4 28.9 103.7 69.7 139.4s93.5 54.4 147.9 49.3a210.92 210.92 0 0 0 64.6-15.3c8.5-3.4 15.3-6.8 22.1-10.2 6.8-5.1 10.2-13.6 6.8-22.1-5.1-6.8-13.6-10.2-22.1-6.8-6.8 3.4-11.9 6.8-18.7 8.5-17 6.8-35.7 11.9-54.4 11.9-45.9 3.4-90.1-11.9-125.8-42.5-34-30.6-56.1-73.1-59.5-119-6.8-95.2 66.3-176.8 159.8-183.6 95.2-6.8 176.8 66.3 183.6 159.8 1.7 15.3 0 28.9-3.4 44.2 0 3.4-1.7 8.5-3.4 11.9-1.7 8.5 3.4 17 11.9 18.7s17-3.4 18.7-11.9c1.7-5.1 1.7-8.5 3.4-13.6 3.4-17 5.1-34 3.4-52.7C709.2 263.3 619.1 180 513.7 180z"  horiz-adv-x="1024" />

    
    <glyph glyph-name="weibiaoti--4" unicode="&#58955;" d="M921 446.79l-46.56 218.74c-17 80-97.37 145-179.16 145H328.75c-81.79 0-162.15-65.07-179.16-145L103 446.79c-51.75-23.08-87.89-72.57-92-128.59L0.4 177.87C-4.12 117.58 30.19 63.24 84 41.24a111.25 111.25 0 0 1 212.39-10.48h431.27a111.25 111.25 0 0 1 212.39 10.48c53.8 22 88.07 76.34 83.55 136.63l-10.51 140.33c-4.2 56-40.34 105.51-92.13 128.59z m-15.9-351.18a31.35 31.35 0 0 1-24.19-29 48.66 48.66 0 0 0-97.12-1.87 31.28 31.28 0 0 1-31.19 28.53H271.43a31.3 31.3 0 0 1-31.19-28.53 48.66 48.66 0 0 0-97.12 1.87 31.34 31.34 0 0 1-24.15 29c-35.89 8.33-59 40.23-56.17 77.56l10.56 140.29c2.73 36.46 30.22 69.55 66.9 80.43a31.39 31.39 0 0 1 22.14 26.31c0.18 1.79 0.32 3.59 0.47 5.38a20.73 20.73 0 0 0 0.25 2.69l47.7 224.2c11 51.75 65 95.47 117.93 95.47h366.54c52.9 0 106.91-43.71 117.93-95.47l47.66-224.16a25 25 0 0 0 0.25-2.76c0.11-1.72 0.25-3.48 0.47-5.24a31.41 31.41 0 0 1 22.18-26.38c36.64-10.91 64.13-44 66.86-80.43l10.51-140.3c2.83-37.32-20.24-69.27-56.1-77.59zM720.12 239.28A70.74 70.74 0 1 1 790.86 310a70.74 70.74 0 0 1-70.74-70.74zM270.86 417.22H753.1c11.63 0 21.6 4.31 27.74 11.7 6.64 7.64 9.3 18.12 7.57 29.47q-0.21 1.14-0.47 2.26l-37.9 164.62c-4.74 25.95-30.43 47.66-56.88 47.66H330.79c-26.45 0-52.15-21.68-56.92-47.66L236 460.68c-0.18-0.75-0.32-1.51-0.47-2.26-1.76-11.34 0.93-21.82 7.18-29 6.57-7.86 16.55-12.17 28.14-12.17z m63.85 193.12h354.65l30-130.49H304.67l30 130.49zM162.44 239.28A70.74 70.74 0 1 1 233.18 310a70.74 70.74 0 0 1-70.74-70.74z"  horiz-adv-x="1024" />

    
    <glyph glyph-name="weibiaoti--5" unicode="&#58956;" d="M192 64h576v64H192v-64z m0 128h576v64H192v-64z m0 128h256v64H192v-64z m512 429.25L553.37 598.63l45.25-45.25L704 658.75l169.37-169.38 45.25 45.25L704 749.25zM0-128V832l320-320h-90L64 677.74V-64h768V256h64v-384H0z m736 512a224 224 0 0 1 158.39 382.39 224 224 0 0 1-316.78-316.78A222.55 222.55 0 0 1 736 384z m0-64c-159.06 0-288 128.94-288 288S576.94 896 736 896s288-128.94 288-288-128.94-288-288-288z"  horiz-adv-x="1024" />

    
    </font>
</defs>
</svg>
